<?xml version="1.0" encoding="UTF-8" standalone="no"?>
<svg
   xmlns:dc="http://purl.org/dc/elements/1.1/"
   xmlns:cc="http://creativecommons.org/ns#"
   xmlns:rdf="http://www.w3.org/1999/02/22-rdf-syntax-ns#"
   xmlns:svg="http://www.w3.org/2000/svg"
   xmlns="http://www.w3.org/2000/svg"
   xmlns:sodipodi="http://sodipodi.sourceforge.net/DTD/sodipodi-0.dtd"
   xmlns:inkscape="http://www.inkscape.org/namespaces/inkscape"
   height="235"
   viewBox="-16 0 266.24999 176.25035"
   width="355"
   version="1.1"
   id="svg8"
   sodipodi:docname="3d.svg"
   inkscape:version="1.0.1 (3bc2e813f5, 2020-09-07)">
  <path
     d="m 146.80497,103.03244 h -35.40384 v -3.0624 c 0,-1.691319 -1.44098,-3.0624 -3.21853,-3.0624 h -9.655606 c -1.777552,0 -3.218534,1.371081 -3.218534,3.0624 v 3.0624 h -6.437076 c -1.777552,0 -3.218533,0.78515 -3.218533,2.47648 0,1.69132 1.440981,2.47646 3.218533,2.47646 h 6.437076 v 3.0624 c 0,1.69131 1.440982,3.0624 3.218534,3.0624 h 9.655606 c 1.77755,0 3.21853,-1.37109 3.21853,-3.0624 v -3.0624 h 35.40384 c 1.77755,0 3.21853,-0.78514 3.21853,-2.47646 0,-1.69133 -1.44119,-2.44706 -3.21853,-2.47648 z m -41.84091,4.95294 h -3.21853 v -4.95294 h 3.21853 z"
     id="path4-6-1"
     style="stroke-width:0.278631;stroke-miterlimit:4;stroke-dasharray:none;fill:#444444;fill-opacity:1"
     sodipodi:nodetypes="scsssscssscsssscsssccccc" />
  <metadata
     id="metadata14">
    <rdf:RDF>
      <cc:Work
         rdf:about="">
        <dc:format>image/svg+xml</dc:format>
        <dc:type
           rdf:resource="http://purl.org/dc/dcmitype/StillImage" />
        <dc:title />
      </cc:Work>
    </rdf:RDF>
  </metadata>
  <defs
     id="defs12" />
  <sodipodi:namedview
     pagecolor="#ffffff"
     bordercolor="#666666"
     borderopacity="1"
     objecttolerance="10"
     gridtolerance="10"
     guidetolerance="10"
     inkscape:pageopacity="0"
     inkscape:pageshadow="2"
     inkscape:window-width="1366"
     inkscape:window-height="714"
     id="namedview10"
     showgrid="false"
     showguides="true"
     inkscape:guide-bbox="true"
     inkscape:zoom="0.84852815"
     inkscape:cx="381.35897"
     inkscape:cy="178.44618"
     inkscape:window-x="0"
     inkscape:window-y="0"
     inkscape:window-maximized="1"
     inkscape:current-layer="svg8"
     inkscape:document-rotation="0"
     units="px"
     inkscape:object-nodes="true"
     inkscape:snap-global="true"
     inkscape:snap-bbox="false"
     inkscape:snap-intersection-paths="true"
     inkscape:object-paths="true"
     inkscape:snap-nodes="true"
     inkscape:snap-smooth-nodes="true" />
  <path
     d="m 205.93682,13.125026 h -98.55351 c -1.577,0 -2.85645,1.217388 -2.85645,2.717884 0,1.501918 1.27945,2.717884 2.85645,2.717884 h 98.55499 c 1.63948,0 2.974,1.269765 2.974,2.831132 v 82.748244 c 0,1.5005 1.27946,2.71788 2.85642,2.71788 1.57853,0 2.85647,-1.21738 2.85647,-2.71788 V 21.391926 c 0,-4.558118 -3.89636,-8.2669 -8.68837,-8.2669 z m 0,0"
     id="path2-3-6"
     style="stroke-width:0.371508;fill:#444444;fill-opacity:1" />
  <path
     d="m 211.76872,113.25782 c -1.57844,0 -2.85642,1.21597 -2.85642,2.71788 v 5.37348 H 25.337702 V 21.391926 c 0,-1.561367 1.3345,-2.831132 2.973985,-2.831132 h 42.068677 c 1.577003,0 2.856452,-1.215966 2.856452,-2.717884 0,-1.500496 -1.279449,-2.717884 -2.856452,-2.717884 H 28.311687 c -4.790508,0 -8.686886,3.708782 -8.686886,8.2669 V 138.10098 c 0,3.53891 3.026054,6.41817 6.745393,6.41817 h 69.224308 v 13.1704 H 83.799735 c -1.577003,0 -2.856456,1.2174 -2.856456,2.71789 0,1.50192 1.279453,2.71788 2.856456,2.71788 h 66.650535 c 1.57848,0 2.85644,-1.21596 2.85644,-2.71788 0,-1.50049 -1.27796,-2.71789 -2.85644,-2.71789 h -11.79478 v -13.1704 h 69.22433 c 3.71933,0 6.74537,-2.87926 6.74537,-6.41817 V 115.9757 c 0,-1.50191 -1.27794,-2.71788 -2.85647,-2.71788 z m -78.82612,44.43173 h -31.6352 v -13.1704 h 31.6352 z m 74.93722,-18.60617 H 26.370194 c -0.569804,0 -1.032492,-0.44024 -1.032492,-0.9824 V 126.78495 H 208.9123 v 11.31603 c 0,0.54216 -0.46269,0.9824 -1.03248,0.9824 z m 0,0"
     id="path4-6-2"
     style="stroke-width:0.371508;fill:#444444;fill-opacity:1" />
  <path
     d="m 82.819313,18.560794 h 12.125046 c 1.576998,0 2.856448,-1.215966 2.856448,-2.717884 0,-1.500496 -1.27945,-2.717884 -2.856448,-2.717884 H 82.819313 c -1.576993,0 -2.85645,1.217388 -2.85645,2.717884 0,1.501918 1.279457,2.717884 2.85645,2.717884 z m 0,0"
     id="path6-7-9"
     style="stroke-width:0.371508;fill:#444444;fill-opacity:1" />
  <path
     d="m 37.287189,33.653545 c -1.576998,0 -2.856451,1.215974 -2.856451,2.717889 v 72.130086 c 0,1.5005 1.279453,2.71789 2.856451,2.71789 H 59.5318 c 1.577001,0 2.85645,-1.21739 2.85645,-2.71789 V 36.371434 c 0,-1.501915 -1.279449,-2.717889 -2.85645,-2.717889 z m 19.388172,5.43577 v 3.281276 H 40.143639 V 39.089315 Z M 40.143639,105.78364 V 47.806361 h 16.531722 v 57.977279 z m 0,0"
     id="path8-1"
     style="stroke-width:0.371508;fill:#444444;fill-opacity:1" />
  <path
     d="m 177.18039,63.151076 h 22.24462 c 1.57849,0 2.85646,-1.215966 2.85646,-2.717889 V 36.371434 c 0,-1.501915 -1.27797,-2.717889 -2.85646,-2.717889 h -22.24462 c -1.57698,0 -2.85647,1.215974 -2.85647,2.717889 v 24.061753 c 0,1.501923 1.27949,2.717889 2.85647,2.717889 z m 2.85645,-5.435762 V 47.80494 h 16.53174 v 9.910374 z m 16.53174,-18.625999 v 3.281276 h -16.53174 v -3.281276 z m 0,0"
     id="path10-2"
     style="stroke-width:0.371508;fill:#444444;fill-opacity:1" />
  <path
     d="m 174.32392,98.963453 c 0,1.501917 1.27949,2.717877 2.85647,2.717877 h 22.24462 c 1.57849,0 2.85646,-1.21596 2.85646,-2.717877 V 74.901688 c 0,-1.501923 -1.27797,-2.71788 -2.85646,-2.71788 h -22.24462 c -1.57698,0 -2.85647,1.215957 -2.85647,2.71788 z m 5.71292,-2.717889 v -9.910361 h 16.53174 v 9.910361 z m 16.53174,-18.626003 v 3.279863 h -16.53174 v -3.279863 z m 0,0"
     id="path12"
     style="stroke-width:0.371508;fill:#444444;fill-opacity:1" />
  <path
     d="m 82.132474,72.157825 c 0,3.733736 3.204304,6.772 7.140504,6.772 1.792774,0 3.431267,-0.630154 4.685953,-1.669115 l 16.826079,8.842663 c -0.0562,0.342281 -0.0867,0.694256 -0.0867,1.051059 0,3.734936 3.20303,6.773208 7.1405,6.773208 3.9362,0 7.13924,-3.038272 7.13924,-6.773208 0,-0.356803 -0.0293,-0.708778 -0.0854,-1.051059 l 16.82482,-8.842663 c 1.25468,1.037753 2.89446,1.669115 4.68596,1.669115 3.93747,0 7.14049,-3.038264 7.14049,-6.773209 0,-2.918527 -1.95726,-5.412519 -4.69233,-6.361983 V 51.410029 c 2.73507,-0.950663 4.69233,-3.443438 4.69233,-6.363165 0,-3.734954 -3.20302,-6.773217 -7.14049,-6.773217 -1.78768,0 -3.42235,0.627719 -4.67576,1.660638 l -16.83633,-8.847501 c 0.0575,-0.342289 0.0867,-0.693043 0.0867,-1.051055 0,-3.734942 -3.20304,-6.773211 -7.14051,-6.773211 -3.9362,0 -7.13923,3.038269 -7.13923,6.773211 0,0.3568 0.0293,0.708766 0.0867,1.051055 l -16.836265,8.847501 c -1.253416,-1.032919 -2.888081,-1.660638 -4.675757,-1.660638 -3.937479,0 -7.140504,3.038263 -7.140504,6.773217 0,2.918519 1.957261,5.412502 4.692326,6.361957 v 14.385812 c -2.735065,0.949464 -4.692326,3.443456 -4.692326,6.363192 z M 117.83881,36.80894 c 1.78769,0 3.42235,-0.627736 4.67577,-1.661863 l 16.83628,8.848731 c -0.0562,0.342281 -0.0867,0.693039 -0.0867,1.051056 0,0.358017 0.0305,0.709966 0.0867,1.052255 l -16.83628,8.847498 c -1.25342,-1.032911 -2.88808,-1.660639 -4.67577,-1.660639 -1.78767,0 -3.42234,0.627728 -4.67575,1.660639 L 96.326784,46.099119 c 0.05737,-0.342289 0.08669,-0.694238 0.08669,-1.052255 0,-0.358017 -0.03059,-0.708775 -0.08669,-1.051056 l 16.836276,-8.847523 c 1.25341,1.032919 2.88808,1.660655 4.67575,1.660655 z m 21.42535,35.348885 c 0,0.353174 0.0293,0.700306 0.0841,1.038961 l -16.83373,8.846298 c -0.6503,-0.537021 -1.4026,-0.965183 -2.22759,-1.25063 V 66.421161 c 2.73507,-0.949464 4.69233,-3.443455 4.69233,-6.363183 0,-0.358017 -0.0305,-0.708774 -0.0867,-1.051055 l 16.8363,-8.847515 c 0.65029,0.535813 1.4026,0.963975 2.22758,1.250621 v 14.384604 c -2.73507,0.949464 -4.69233,3.443456 -4.69233,6.363192 z M 120.08297,60.057978 c 0,1.174426 -1.00731,2.128723 -2.24416,2.128723 -1.23683,0 -2.24415,-0.954297 -2.24415,-2.128723 0,-1.173217 1.00732,-2.127515 2.24415,-2.127515 1.23685,0 2.24416,0.954298 2.24416,2.127515 z m -26.134235,-9.89857 16.836275,8.847515 c -0.0562,0.343498 -0.0867,0.694255 -0.0867,1.052264 0,2.918519 1.95727,5.41251 4.69233,6.361974 v 14.371293 c -0.82498,0.286656 -1.57728,0.714817 -2.22758,1.25063 L 96.329325,73.196786 c 0.05487,-0.338655 0.08415,-0.685787 0.08415,-1.038961 0,-2.919736 -1.957261,-5.413728 -4.69233,-6.363192 V 51.410029 c 0.824988,-0.286646 1.57729,-0.714808 2.227587,-1.250621 z M 89.272978,74.28534 c -1.236843,0 -2.24416,-0.954298 -2.24416,-2.127515 0,-1.174417 1.007317,-2.128724 2.24416,-2.128724 1.238113,0 2.244152,0.954307 2.244152,2.128724 0,1.173217 -1.006039,2.127515 -2.244152,2.127515 z m 28.565832,14.997807 c -1.23683,0 -2.24415,-0.955507 -2.24415,-2.128715 0,-1.17322 1.00732,-2.128727 2.24415,-2.128727 1.23685,0 2.24416,0.955507 2.24416,2.128727 0,1.173208 -1.00731,2.128715 -2.24416,2.128715 z M 146.40466,74.28534 c -1.23684,0 -2.24416,-0.954298 -2.24416,-2.127515 0,-1.174417 1.00732,-2.128724 2.24416,-2.128724 1.23683,0 2.24416,0.954307 2.24416,2.128724 0,1.173217 -1.00733,2.127515 -2.24416,2.127515 z m 0,-31.3672 c 1.23683,0 2.24416,0.955507 2.24416,2.128724 0,1.173208 -1.00733,2.128714 -2.24416,2.128714 -1.23684,0 -2.24416,-0.955506 -2.24416,-2.128714 0,-1.173226 1.00732,-2.128724 2.24416,-2.128724 z M 117.83881,27.907006 c 1.23685,0 2.24416,0.955505 2.24416,2.128723 0,1.173215 -1.00731,2.128726 -2.24416,2.128726 -1.23683,0 -2.24415,-0.955511 -2.24415,-2.128726 0,-1.173218 1.00732,-2.128723 2.24415,-2.128723 z M 89.272978,42.91814 c 1.238113,0 2.244152,0.955498 2.244152,2.128724 0,1.173208 -1.006039,2.128714 -2.244152,2.128714 -1.236843,0 -2.24416,-0.955506 -2.24416,-2.128714 0,-1.173226 1.007317,-2.128724 2.24416,-2.128724 z m 0,0"
     id="path14"
     style="stroke-width:0.317838;stroke-miterlimit:4;stroke-dasharray:none;fill:#444444;fill-opacity:1" />
</svg>
