<?xml version="1.0" encoding="UTF-8" standalone="no"?>
<svg
   xmlns:dc="http://purl.org/dc/elements/1.1/"
   xmlns:cc="http://creativecommons.org/ns#"
   xmlns:rdf="http://www.w3.org/1999/02/22-rdf-syntax-ns#"
   xmlns:svg="http://www.w3.org/2000/svg"
   xmlns="http://www.w3.org/2000/svg"
   xmlns:sodipodi="http://sodipodi.sourceforge.net/DTD/sodipodi-0.dtd"
   xmlns:inkscape="http://www.inkscape.org/namespaces/inkscape"
   height="235"
   viewBox="-16 0 266.24999 176.25035"
   width="355"
   version="1.1"
   id="svg8"
   sodipodi:docname="ar.svg"
   inkscape:version="1.0.1 (3bc2e813f5, 2020-09-07)">
  <metadata
     id="metadata14">
    <rdf:RDF>
      <cc:Work
         rdf:about="">
        <dc:format>image/svg+xml</dc:format>
        <dc:type
           rdf:resource="http://purl.org/dc/dcmitype/StillImage" />
        <dc:title />
      </cc:Work>
    </rdf:RDF>
  </metadata>
  <defs
     id="defs12" />
  <sodipodi:namedview
     pagecolor="#ffffff"
     bordercolor="#666666"
     borderopacity="1"
     objecttolerance="10"
     gridtolerance="10"
     guidetolerance="10"
     inkscape:pageopacity="0"
     inkscape:pageshadow="2"
     inkscape:window-width="1366"
     inkscape:window-height="714"
     id="namedview10"
     showgrid="false"
     showguides="false"
     inkscape:guide-bbox="true"
     inkscape:zoom="1.6970563"
     inkscape:cx="187.43696"
     inkscape:cy="126.48175"
     inkscape:window-x="0"
     inkscape:window-y="0"
     inkscape:window-maximized="1"
     inkscape:current-layer="svg8"
     inkscape:document-rotation="0"
     units="px"
     inkscape:object-nodes="true"
     inkscape:snap-global="true"
     inkscape:snap-bbox="false"
     inkscape:snap-intersection-paths="true"
     inkscape:object-paths="true"
     inkscape:snap-nodes="true"
     inkscape:snap-smooth-nodes="true" />
  <path
     id="path6"
     style="stroke-width:0.252208;stroke:#444444;stroke-opacity:1;fill:#444444;fill-opacity:1"
     d="m 179.7143,156.06911 -1.06141,-6.41631 c -0.17254,-1.04637 -1.1351,-1.75025 -2.14808,-1.57101 -1.01295,0.17919 -1.69342,1.17249 -1.52089,2.21885 l 1.06144,6.41527 c 0.10663,0.64886 -0.0601,1.28267 -0.4711,1.78536 -0.41003,0.50264 -0.98678,0.77896 -1.62364,0.77896 h -13.04544 l -2.33029,-14.79011 c -0.16477,-1.04734 -1.11862,-1.75827 -2.13544,-1.58806 -1.01492,0.17024 -1.70314,1.1575 -1.53836,2.20586 l 2.23336,14.17231 H 83.001143 l 2.232347,-14.17231 c 0.165775,-1.04836 -0.523407,-2.03562 -1.537358,-2.20586 -1.012936,-0.17021 -1.970678,0.53972 -2.136415,1.58806 l -2.329358,14.79011 H 66.183987 c -0.63687,0 -1.213638,-0.27632 -1.623616,-0.77896 -0.410054,-0.50269 -0.577741,-1.1365 -0.470159,-1.78536 l 2.542574,-15.37687 c 0.869499,-5.2598 4.248664,-9.71156 8.863656,-11.89938 0.243306,-0.0531 0.469149,-0.15522 0.666922,-0.2964 0.507932,-0.21127 1.030438,-0.39651 1.563515,-0.5517 l 22.335661,-4.90234 c 5.93716,4.11532 12.84082,6.28712 20.00524,6.28712 7.16439,0 14.06708,-2.1718 20.00529,-6.28712 l 22.3346,4.90234 c 5.7385,1.67516 10.0899,6.67262 11.09413,12.74748 0.17351,1.04636 1.1351,1.74928 2.14805,1.57103 1.01297,-0.17822 1.6944,-1.17252 1.5209,-2.21886 -1.24849,-7.55279 -6.67294,-13.76281 -13.81797,-15.81948 -0.0369,-0.011 -0.0747,-0.0199 -0.11342,-0.028 l -23.17404,-5.08759 -2.24404,-0.49264 c -1.44432,-0.29937 -3.05923,-2.34303 -3.05923,-4.62797 v -6.65962 c 3.43436,-3.18212 7.01414,-6.91796 8.52536,-9.211921 2.56487,-3.889027 4.05572,-8.437924 4.31164,-13.153018 l 0.0659,-1.220588 h 0.86855 c 1.5238,0 2.82467,-1.006288 3.31223,-2.410106 h 1.91155 c 2.11317,0 3.83278,-1.775301 3.83278,-3.958125 V 61.366669 c 0,-2.182824 -1.71961,-3.959122 -3.83278,-3.959122 h -1.91155 c -0.45944,-1.322721 -1.64107,-2.291974 -3.05147,-2.400111 -0.68145,-5.151655 -2.84019,-9.974899 -6.17375,-13.73676 -8.19966,-9.248969 -20.25149,-9.387159 -20.92907,-9.387159 -0.005,0 -0.01,0 -0.0136,0 h -3.21628 c -0.52344,0.0051 -12.68481,0.06811 -20.945548,9.385141 -3.334506,3.760873 -5.492279,8.584117 -6.174684,13.737782 -1.414259,0.104126 -2.600764,1.075381 -3.061183,2.401107 h -1.911551 c -2.113145,0 -3.832798,1.776298 -3.832798,3.959122 v 6.405286 h -2.899307 c -3.523511,0 -6.388905,2.959831 -6.388905,6.599533 v 51.923162 c -5.359515,2.81864 -9.250439,8.14854 -10.283761,14.39663 l -2.542536,15.37791 c -0.290857,1.75829 0.181214,3.54856 1.294051,4.91133 1.113772,1.36276 2.742263,2.1448 4.468661,2.1448 H 173.95057 c 1.72638,0 3.35585,-0.78204 4.46865,-2.1448 1.11379,-1.36277 1.58584,-3.15304 1.29504,-4.91133 z M 152.05124,61.252428 h 1.70507 c 0.061,0 0.1105,0.05109 0.1105,0.114156 v 16.654532 c 0,0.06309 -0.0495,0.114149 -0.1105,0.114149 h -1.70507 z m -16.91406,61.013932 c -4.62667,2.53828 -9.76807,3.86501 -15.0694,3.86501 -5.30328,0 -10.44659,-1.32772 -15.07424,-3.86701 2.57655,-1.55101 4.10227,-4.83825 4.10227,-7.62886 v -3.38939 c 1.52573,1.25661 2.79849,2.17483 3.52936,2.49723 2.3652,1.04134 4.9039,1.56302 7.44261,1.56302 2.53871,0 5.07741,-0.52067 7.44163,-1.56302 0.73185,-0.3224 2.0046,-1.24161 3.52939,-2.49723 v 3.38939 c 0,2.79261 1.52961,6.08386 4.09838,7.63086 z M 100.26121,43.865937 c 7.12659,-8.038402 18.08307,-8.137532 18.19554,-8.137532 h 3.22693 v 0 c 0.16188,0 11.04565,0.07909 18.1897,8.138528 2.70931,3.056959 4.5026,6.949987 5.15497,11.130397 H 95.105322 c 0.653319,-4.182411 2.446573,-8.075447 5.155888,-11.131393 z m -8.464273,14.976376 h 1.220381 0.031 55.280612 v 21.703083 h -20.70712 c -0.99357,0 -1.96774,-0.280375 -2.81786,-0.811045 -2.92451,-1.824368 -6.5576,-1.824368 -9.48211,0 -0.85009,0.53067 -1.8243,0.811045 -2.81785,0.811045 h -3.36072 c -1.0275,0 -1.86114,0.861108 -1.86114,1.922483 0,1.061375 0.83364,1.922483 1.86114,1.922483 h 3.36072 c 1.67111,0 3.31124,-0.471608 4.74199,-1.364763 1.73805,-1.083401 3.89677,-1.083401 5.63384,0 1.43073,0.893155 3.0699,1.364763 4.74102,1.364763 h 16.31596 l -0.0552,1.004297 c -0.21809,4.018202 -1.48698,7.892219 -3.6709,11.204501 -2.68702,4.07628 -12.45507,12.85562 -14.16113,13.6066 -3.80273,1.67518 -8.16282,1.67518 -11.96457,0 -0.56027,-0.2463 -2.60754,-1.78831 -5.59407,-4.51284 -0.0155,-0.015 -0.0322,-0.0301 -0.0485,-0.044 -0.36738,-0.33543 -0.74835,-0.68889 -1.14289,-1.05939 -3.41888,-3.21214 -6.24448,-6.274103 -7.375696,-7.990323 C 97.73991,93.286895 96.47007,89.411884 96.251946,85.392676 l -0.05431,-1.002297 h 4.277724 c 1.02846,0 1.86111,-0.861108 1.86111,-1.922483 0,-1.062371 -0.83265,-1.922483 -1.86111,-1.922483 h -8.678518 z m -5.537885,2.524271 c 0,-0.06309 0.04946,-0.114156 0.110503,-0.114156 h 1.705085 v 16.882837 h -1.705085 c -0.06104,0 -0.110503,-0.051 -0.110503,-0.114149 z m -9.289183,13.004819 c 0,-1.518961 1.196139,-2.754567 2.666645,-2.754567 h 2.90028 v 6.40428 c 0,2.182834 1.719616,3.959132 3.832761,3.959132 h 1.910613 c 0.487553,1.403816 1.788421,2.410114 3.313225,2.410114 h 0.876235 l 0.06687,1.218587 c 0.255934,4.716083 1.746789,9.265983 4.311619,13.155011 1.511237,2.29396 5.090983,6.02981 8.525393,9.21193 v 6.65961 c 0,2.28495 -1.61491,4.3286 -3.07965,4.63299 l -2.22363,0.48762 -23.100378,5.07057 z m 0,0 M 137.85839,63.105054 c 0,-0.346444 0.27144,-0.659854 0.67079,-0.659854 h 3.16296 c 2.09282,0 3.78625,0.825068 3.78625,3.448468 0,1.897452 -0.89468,2.920786 -2.09281,3.300265 l 2.09281,4.010189 c 0.064,0.08208 0.0795,0.198258 0.0795,0.264335 0,0.544718 -0.68631,1.121458 -1.29408,1.121458 -0.28692,0 -0.55835,-0.181238 -0.71828,-0.511667 l -2.26825,-4.554891 h -1.34255 v 4.307575 c 0,0.445574 -0.51085,0.676874 -1.03817,0.676874 -0.5118,0 -1.03913,-0.2313 -1.03913,-0.676874 V 63.105054 Z m 2.07635,1.220579 v 3.514554 h 1.7574 c 1.03817,0 1.70895,-0.445574 1.70895,-1.749266 0,-1.303692 -0.67078,-1.765288 -1.70895,-1.765288 z m 0,0 m -3.34152,9.224941 c 0.0164,0.06616 0.032,0.132164 0.032,0.165215 0,0.527682 -0.75126,0.891155 -1.30959,0.891155 -0.35186,0 -0.62329,-0.115153 -0.70278,-0.429559 l -2.44469,-8.943579 -2.42818,8.943579 c -0.0795,0.314406 -0.35187,0.429559 -0.70279,0.429559 -0.5593,0 -1.31053,-0.379488 -1.31053,-0.891155 0,-0.05015 0.0164,-0.09913 0.0331,-0.165215 l 3.067,-10.379434 c 0.14345,-0.495635 0.73475,-0.72594 1.34155,-0.72594 0.60682,0 1.18262,0.230305 1.34158,0.72594 z m 0,0" />
  <path
     id="rect877-3"
     style="opacity:1;fill:none;stroke:#444444;stroke-width:4.66725927;stroke-linejoin:round;stroke-miterlimit:4;stroke-dasharray:none;stroke-opacity:1;paint-order:fill markers stroke"
     d="m 21.883318,40.80627 c 0,0 34.371368,-25.347727 95.259702,-25.347727 60.88834,0 95.07364,25.347727 95.07364,25.347727 l 1e-5,83.16362 c 0,0 -62.3671,25.24433 -95.07365,25.25231 -32.706546,0.008 -95.259702,-25.25231 -95.259702,-25.25231 z"
     sodipodi:nodetypes="czcczcc" />
  <path
     style="fill:none;stroke:#444444;stroke-width:4.61158;stroke-linecap:round;stroke-linejoin:round;stroke-miterlimit:4;stroke-dasharray:none;stroke-opacity:1"
     d="M 32.76127,44.809392 65.793993,58.097328 V 105.4995 L 32.76127,118.78743"
     id="path1065"
     sodipodi:nodetypes="cccc" />
  <path
     style="fill:none;stroke:#444444;stroke-width:2.95502;stroke-linecap:round;stroke-linejoin:miter;stroke-miterlimit:4;stroke-dasharray:none;stroke-opacity:1"
     d="M 35.325491,58.672288 V 103.67011"
     id="path1067"
     sodipodi:nodetypes="cc" />
  <path
     style="fill:none;stroke:#444444;stroke-width:2.95502;stroke-linecap:round;stroke-linejoin:miter;stroke-miterlimit:4;stroke-dasharray:none;stroke-opacity:1"
     d="M 44.61078,63.060517 V 99.281876"
     id="path1069"
     sodipodi:nodetypes="cc" />
  <path
     style="fill:none;stroke:#444444;stroke-width:2.95502;stroke-linecap:round;stroke-linejoin:miter;stroke-miterlimit:4;stroke-dasharray:none;stroke-opacity:1"
     d="M 54.553863,66.624886 V 95.717521"
     id="path1071"
     sodipodi:nodetypes="cc" />
  <path
     style="fill:none;stroke:#444444;stroke-width:4.61158;stroke-linecap:round;stroke-linejoin:round;stroke-miterlimit:4;stroke-dasharray:none;stroke-opacity:1"
     d="M 201.13855,44.809392 168.1058,58.097328 V 105.4995 l 33.03275,13.28793"
     id="path1073"
     sodipodi:nodetypes="cccc" />
  <path
     style="fill:none;stroke:#444444;stroke-width:2.95502;stroke-linecap:round;stroke-linejoin:miter;stroke-miterlimit:4;stroke-dasharray:none;stroke-opacity:1"
     d="M 198.57432,58.672288 V 103.67011"
     id="path1075"
     sodipodi:nodetypes="cc" />
  <path
     style="fill:none;stroke:#444444;stroke-width:2.95502;stroke-linecap:round;stroke-linejoin:miter;stroke-miterlimit:4;stroke-dasharray:none;stroke-opacity:1"
     d="M 189.28901,63.060517 V 99.281876"
     id="path1077"
     sodipodi:nodetypes="cc" />
  <path
     style="fill:none;stroke:#444444;stroke-width:2.95502;stroke-linecap:round;stroke-linejoin:miter;stroke-miterlimit:4;stroke-dasharray:none;stroke-opacity:1"
     d="M 179.34596,66.624886 V 95.717521"
     id="path1079"
     sodipodi:nodetypes="cc" />
</svg>
