<?xml version="1.0" encoding="UTF-8" standalone="no"?>
<svg
   xmlns:dc="http://purl.org/dc/elements/1.1/"
   xmlns:cc="http://creativecommons.org/ns#"
   xmlns:rdf="http://www.w3.org/1999/02/22-rdf-syntax-ns#"
   xmlns:svg="http://www.w3.org/2000/svg"
   xmlns="http://www.w3.org/2000/svg"
   xmlns:sodipodi="http://sodipodi.sourceforge.net/DTD/sodipodi-0.dtd"
   xmlns:inkscape="http://www.inkscape.org/namespaces/inkscape"
   height="235"
   viewBox="-16 0 266.24999 176.25035"
   width="355"
   version="1.1"
   id="svg8"
   sodipodi:docname="md.svg"
   inkscape:version="1.0.1 (3bc2e813f5, 2020-09-07)">
  <path
     d="m 82.819317,18.560795 h 12.125024 c 1.577005,0 2.856462,-1.215972 2.856462,-2.717885 0,-1.500499 -1.279457,-2.717884 -2.856462,-2.717884 H 82.819317 c -1.576974,0 -2.856464,1.217385 -2.856464,2.717884 0,1.501913 1.27949,2.717885 2.856464,2.717885 z m 0,0"
     id="path6-9"
     style="stroke-width:0.371507;fill:#444444;fill-opacity:1" />
  <metadata
     id="metadata14">
    <rdf:RDF>
      <cc:Work
         rdf:about="">
        <dc:format>image/svg+xml</dc:format>
        <dc:type
           rdf:resource="http://purl.org/dc/dcmitype/StillImage" />
        <dc:title />
      </cc:Work>
    </rdf:RDF>
  </metadata>
  <defs
     id="defs12" />
  <sodipodi:namedview
     pagecolor="#ffffff"
     bordercolor="#666666"
     borderopacity="1"
     objecttolerance="10"
     gridtolerance="10"
     guidetolerance="10"
     inkscape:pageopacity="0"
     inkscape:pageshadow="2"
     inkscape:window-width="1366"
     inkscape:window-height="714"
     id="namedview10"
     showgrid="false"
     showguides="true"
     inkscape:guide-bbox="true"
     inkscape:zoom="1.6970563"
     inkscape:cx="117.40541"
     inkscape:cy="119.93175"
     inkscape:window-x="0"
     inkscape:window-y="0"
     inkscape:window-maximized="1"
     inkscape:current-layer="svg8"
     inkscape:document-rotation="0"
     units="px"
     inkscape:object-nodes="true"
     inkscape:snap-global="true"
     inkscape:snap-bbox="false"
     inkscape:snap-intersection-paths="true"
     inkscape:object-paths="true"
     inkscape:snap-nodes="true"
     inkscape:snap-smooth-nodes="true">
    <sodipodi:guide
       position="76.461336,148.94365"
       orientation="0,-1"
       id="guide896" />
    <sodipodi:guide
       position="62.976694,119.43933"
       orientation="0,-1"
       id="guide898" />
    <sodipodi:guide
       position="56.282551,109.71842"
       orientation="1,0"
       id="guide900" />
    <sodipodi:guide
       position="79.209759,104.08749"
       orientation="1,0"
       id="guide902" />
  </sodipodi:namedview>
  <path
     d="m 205.93683,13.125026 h -98.55351 c -1.57702,0 -2.85647,1.217385 -2.85647,2.717884 0,1.501913 1.27945,2.717885 2.85647,2.717885 h 98.55499 c 1.63945,0 2.97395,1.269762 2.97395,2.831128 v 82.748237 c 0,1.5005 1.2795,2.71787 2.85648,2.71787 1.57848,0 2.85645,-1.21737 2.85645,-2.71787 V 21.391923 c 0,-4.558119 -3.89639,-8.266897 -8.68836,-8.266897 z m 0,0"
     id="path2-7"
     style="stroke-width:0.371507;fill:#444444;fill-opacity:1" />
  <path
     d="m 211.76874,113.2578 c -1.5785,0 -2.85648,1.21597 -2.85648,2.71789 v 5.37347 H 25.337687 V 21.391923 c 0,-1.561366 1.334521,-2.831128 2.974001,-2.831128 h 42.068646 c 1.577044,0 2.856465,-1.215972 2.856465,-2.717885 0,-1.500499 -1.279416,-2.717884 -2.856465,-2.717884 H 28.311688 c -4.790498,0 -8.686887,3.708778 -8.686887,8.266897 V 138.10096 c 0,3.5389 3.026039,6.41818 6.745374,6.41818 h 69.224344 v 13.17041 H 83.799727 c -1.576973,0 -2.85646,1.21738 -2.85646,2.71787 0,1.50191 1.279487,2.7179 2.85646,2.7179 h 66.650523 c 1.57847,0 2.85646,-1.21599 2.85646,-2.7179 0,-1.50049 -1.27799,-2.71787 -2.85646,-2.71787 h -11.79473 v -13.17041 h 69.2243 c 3.71932,0 6.74537,-2.87928 6.74537,-6.41818 v -22.12527 c 0,-1.50192 -1.27796,-2.71789 -2.85645,-2.71789 z m -78.82612,44.43175 H 101.3074 v -13.17041 h 31.63522 z m 74.9372,-18.60619 H 26.370175 c -0.569797,0 -1.032488,-0.44025 -1.032488,-0.9824 V 126.78493 H 208.91226 v 11.31603 c 0,0.54215 -0.46265,0.9824 -1.03244,0.9824 z m 0,0"
     id="path4-0"
     style="stroke-width:0.371507;fill:#444444;fill-opacity:1" />
  <g
     id="g14"
     transform="matrix(0.50949455,0,0,0.50949455,71.395798,27.3067)"
     style="fill:#444444;fill-opacity:1" />
  <g
     id="g16"
     transform="matrix(0.50949455,0,0,0.50949455,71.395798,27.3067)"
     style="fill:#444444;fill-opacity:1" />
  <g
     id="g18"
     transform="matrix(0.50949455,0,0,0.50949455,71.395798,27.3067)"
     style="fill:#444444;fill-opacity:1" />
  <g
     id="g20"
     transform="matrix(0.50949455,0,0,0.50949455,71.395798,27.3067)"
     style="fill:#444444;fill-opacity:1" />
  <g
     id="g22"
     transform="matrix(0.50949455,0,0,0.50949455,71.395798,27.3067)"
     style="fill:#444444;fill-opacity:1" />
  <g
     id="g24"
     transform="matrix(0.50949455,0,0,0.50949455,71.395798,27.3067)"
     style="fill:#444444;fill-opacity:1" />
  <g
     id="g26"
     transform="matrix(0.50949455,0,0,0.50949455,71.395798,27.3067)"
     style="fill:#444444;fill-opacity:1" />
  <g
     id="g28"
     transform="matrix(0.50949455,0,0,0.50949455,71.395798,27.3067)"
     style="fill:#444444;fill-opacity:1" />
  <g
     id="g30"
     transform="matrix(0.50949455,0,0,0.50949455,71.395798,27.3067)"
     style="fill:#444444;fill-opacity:1" />
  <g
     id="g32"
     transform="matrix(0.50949455,0,0,0.50949455,71.395798,27.3067)"
     style="fill:#444444;fill-opacity:1" />
  <g
     id="g34"
     transform="matrix(0.50949455,0,0,0.50949455,71.395798,27.3067)"
     style="fill:#444444;fill-opacity:1" />
  <g
     id="g36"
     transform="matrix(0.50949455,0,0,0.50949455,71.395798,27.3067)"
     style="fill:#444444;fill-opacity:1" />
  <g
     id="g38"
     transform="matrix(0.50949455,0,0,0.50949455,71.395798,27.3067)"
     style="fill:#444444;fill-opacity:1" />
  <g
     id="g40"
     transform="matrix(0.50949455,0,0,0.50949455,71.395798,27.3067)"
     style="fill:#444444;fill-opacity:1" />
  <g
     id="g42"
     transform="matrix(0.50949455,0,0,0.50949455,71.395798,27.3067)"
     style="fill:#444444;fill-opacity:1" />
  <g
     id="g4"
     transform="matrix(1.2769666,0,0,1.14644,39.881566,25.46735)"
     style="fill:#444444;fill-opacity:1">
    <path
       d="m 54.29,55.78 v 23.7 h -2.97 v -24.9 l -3.76,-1.53 -7.95,8.67 h -2.22 l -7.95,-8.67 -3.76,1.53 v 24.9 h -2.97 v -23.7 l -5.6,2.3 V 79.47 H 14.14 V 59.28 l -4.09,1.66 c -2.2,1.2 -3.89,2.68 -5.06,4.4 -1.18,1.71 -1.84,3.68 -2.02,5.96 v 8.17 H 0 v -8.2 -0.1 c 0.2,-2.79 1.02,-5.24 2.51,-7.39 1.43,-2.12 3.48,-3.89 6.09,-5.32 0.05,-0.03 0.13,-0.08 0.2,-0.1 l 19.33,-7.9 v -5.65 c -0.2,-0.18 -0.38,-0.33 -0.56,-0.54 -2.69,-2.66 -4.5,-6.62 -5.04,-12.58 l -0.97,-1 c -0.31,-0.26 -0.49,-0.64 -0.49,-1.05 v -2.3 h 2.97 v 1.76 l 1,1.02 c 0.26,0.26 0.38,0.56 0.41,0.87 0.41,5.52 1.94,9.05 4.24,11.3 2.23,2.17 5.24,3.25 8.67,3.78 3.68,-0.59 6.6,-2.17 8.67,-4.6 2.22,-2.58 3.55,-6.14 3.99,-10.51 0.03,-0.28 0.13,-0.54 0.31,-0.74 l 0.89,-1.1 0.03,-1.89 2.94,0.03 -0.03,2.28 c 0.03,0.33 -0.08,0.69 -0.31,0.97 l -0.95,1.18 c -0.51,4.76 -2.07,8.69 -4.6,11.64 -0.38,0.43 -0.77,0.84 -1.18,1.25 v 5.68 l 20,8.16 c 0.08,0.03 0.13,0.05 0.2,0.1 2.61,1.43 4.65,3.22 6.09,5.32 1.46,2.15 2.3,4.6 2.51,7.39 v 8.3 h -2.97 v -8.2 c -0.18,-2.28 -0.84,-4.25 -2.02,-5.96 -1.18,-1.71 -2.86,-3.2 -5.06,-4.4 L 62.78,59.31 V 79.5 H 59.81 V 58.1 l -5.6,-2.3 z m 45.96,0 v 23.7 h -2.97 v -24.9 l -3.76,-1.53 -7.95,8.67 h -2.22 l -7.95,-8.67 -3.76,1.53 v 1.53 C 70.59,55.17 69.4,54.12 68.06,52.93 L 74.1,50.46 V 44.81 C 73.9,44.63 73.72,44.48 73.54,44.27 70.85,41.61 69.04,37.65 68.5,31.69 l -0.97,-1 c -0.31,-0.26 -0.49,-0.64 -0.49,-1.05 v -2.3 H 70 v 1.76 l 1,1.02 c 0.26,0.26 0.38,0.56 0.41,0.87 0.41,5.52 1.94,9.05 4.24,11.3 2.23,2.17 5.24,3.25 8.67,3.78 3.68,-0.59 6.6,-2.17 8.67,-4.6 2.22,-2.58 3.55,-6.14 3.99,-10.51 0.03,-0.28 0.13,-0.54 0.31,-0.74 l 0.89,-1.1 0.03,-1.89 2.94,0.03 -0.03,2.28 c 0.03,0.33 -0.08,0.69 -0.31,0.97 l -0.95,1.18 c -0.51,4.76 -2.07,8.69 -4.6,11.64 -0.38,0.43 -0.77,0.84 -1.18,1.25 v 5.68 l 20,8.16 c 0.08,0.03 0.13,0.05 0.2,0.1 2.61,1.43 4.65,3.22 6.09,5.32 1.46,2.15 2.3,4.6 2.51,7.39 v 8.3 h -2.97 v -8.2 c -0.18,-2.28 -0.84,-4.25 -2.02,-5.96 -1.18,-1.71 -2.86,-3.2 -5.06,-4.4 l -4.09,-1.66 V 79.5 h -2.97 V 58.1 l -5.6,-2.3 z M 78.1,4.2 c -0.18,0 -0.33,-0.03 -0.49,-0.08 -4.3,1.92 -7.77,6.14 -8.72,13.17 -0.1,0.77 -0.84,1.33 -1.64,1.23 -0.82,-0.1 -1.38,-0.79 -1.28,-1.59 1.1,-8.21 5.32,-13.17 10.51,-15.45 2.63,-1.15 5.47,-1.61 8.31,-1.46 2.81,0.15 5.63,0.92 8.13,2.22 5.32,2.76 9.38,7.93 9.67,14.78 0.03,0.79 -0.61,1.43 -1.41,1.46 -0.82,0.03 -1.51,-0.59 -1.53,-1.35 C 99.4,11.38 96,7.06 91.53,4.73 91.35,4.63 91.15,4.53 90.94,4.45 90.79,4.5 90.61,4.53 90.4,4.53 89.07,4.5 88.71,6.88 88.64,10.1 c -0.03,1.43 0,3.02 0.03,4.65 0.03,1.28 0.05,2.61 0.05,3.48 0,0.79 -0.67,1.43 -1.46,1.43 -0.82,0 -1.46,-0.64 -1.46,-1.43 C 85.8,16.8 85.77,15.8 85.75,14.8 85.72,13.14 85.7,11.53 85.72,10.04 85.8,7.12 86.13,4.7 87.2,3.19 86.36,3.01 85.49,2.88 84.59,2.83 83.49,2.78 82.39,2.8 81.32,2.98 c 0.97,1.51 1.3,3.94 1.38,6.78 0.05,1.53 0,3.22 -0.03,4.94 -0.03,1.02 -0.05,2.07 -0.05,3.53 0,0.79 -0.64,1.43 -1.43,1.43 -0.79,0 -1.43,-0.64 -1.43,-1.43 0,-0.89 0.03,-2.25 0.05,-3.58 0.03,-1.69 0.05,-3.32 0.03,-4.83 -0.08,-3.3 -0.43,-5.73 -1.82,-5.7 z m -1,42.6 v 3.76 l 7.36,8.03 6.7,-7.31 v -4.6 c -1.89,1.1 -4.07,1.84 -6.52,2.2 -0.15,0.03 -0.33,0.03 -0.49,0 -2.56,-0.38 -4.94,-1.02 -7.06,-2.1 V 46.8 Z M 66.11,18.82 c 0.38,0.82 1.13,1.53 2.15,2.17 3.27,2.05 9.03,3.04 14.99,3.04 5.98,0.03 12.1,-0.95 16.03,-2.81 1.53,-0.74 2.71,-1.59 3.3,-2.53 l 2.53,1.46 c -0.9,1.43 -2.48,2.66 -4.53,3.63 -4.32,2.05 -10.92,3.12 -17.34,3.09 -6.47,-0.03 -12.81,-1.15 -16.57,-3.5 -1.48,-0.92 -2.58,-2.05 -3.22,-3.35 l 2.68,-1.18 z M 82.42,65.13 H 86 v 3.45 h -3.58 z m 0,8.8 H 86 v 3.45 H 82.42 Z M 32.14,4.2 c -0.18,0 -0.33,-0.03 -0.49,-0.08 -4.3,1.92 -7.77,6.14 -8.72,13.17 -0.1,0.77 -0.84,1.33 -1.64,1.23 -0.82,-0.1 -1.38,-0.79 -1.28,-1.59 1.1,-8.21 5.32,-13.17 10.51,-15.45 2.63,-1.15 5.47,-1.61 8.31,-1.46 2.81,0.15 5.63,0.92 8.13,2.22 5.32,2.76 9.38,7.93 9.67,14.78 0.03,0.79 -0.61,1.43 -1.41,1.46 C 54.4,18.51 53.71,17.89 53.69,17.13 53.43,11.38 50.03,7.05 45.56,4.73 45.38,4.63 45.18,4.53 44.97,4.45 44.82,4.5 44.64,4.53 44.43,4.53 43.1,4.5 42.74,6.88 42.67,10.1 c -0.03,1.43 0,3.02 0.03,4.65 0.03,1.28 0.05,2.61 0.05,3.48 0,0.79 -0.67,1.43 -1.46,1.43 -0.82,0 -1.46,-0.64 -1.46,-1.43 C 39.83,16.8 39.8,15.8 39.78,14.8 39.75,13.14 39.73,11.53 39.75,10.04 39.83,7.12 40.16,4.7 41.23,3.19 40.39,3.01 39.52,2.88 38.62,2.83 37.52,2.78 36.42,2.8 35.35,2.98 c 0.97,1.51 1.3,3.94 1.38,6.78 0.05,1.53 0,3.22 -0.03,4.94 -0.03,1.02 -0.05,2.07 -0.05,3.53 0,0.79 -0.64,1.43 -1.43,1.43 -0.79,0 -1.43,-0.64 -1.43,-1.43 0,-0.89 0.03,-2.25 0.05,-3.58 0.03,-1.69 0.05,-3.32 0.03,-4.83 -0.08,-3.3 -0.43,-5.73 -1.82,-5.7 z m -0.99,42.6 v 3.76 l 7.36,8.03 6.7,-7.31 v -4.6 c -1.89,1.1 -4.07,1.84 -6.52,2.2 -0.15,0.03 -0.33,0.03 -0.49,0 -2.56,-0.38 -4.94,-1.02 -7.06,-2.1 v 0.02 z m -11,-27.98 c 0.38,0.82 1.13,1.53 2.15,2.17 3.27,2.05 9.03,3.04 14.99,3.04 5.98,0.03 12.1,-0.95 16.03,-2.81 1.53,-0.74 2.71,-1.59 3.3,-2.53 l 2.53,1.46 c -0.9,1.43 -2.48,2.66 -4.53,3.63 C 50.3,25.83 43.7,26.9 37.28,26.87 30.81,26.84 24.47,25.72 20.71,23.37 19.23,22.45 18.13,21.32 17.49,20.02 l 2.68,-1.18 z m 16.32,46.31 h 3.58 v 3.45 h -3.58 z m 0,8.8 h 3.58 v 3.45 h -3.58 z"
       id="path2"
       style="fill:#444444;fill-opacity:1" />
  </g>
</svg>
