<?xml version="1.0" encoding="UTF-8" standalone="no"?>
<svg
   xmlns:dc="http://purl.org/dc/elements/1.1/"
   xmlns:cc="http://creativecommons.org/ns#"
   xmlns:rdf="http://www.w3.org/1999/02/22-rdf-syntax-ns#"
   xmlns:svg="http://www.w3.org/2000/svg"
   xmlns="http://www.w3.org/2000/svg"
   xmlns:sodipodi="http://sodipodi.sourceforge.net/DTD/sodipodi-0.dtd"
   xmlns:inkscape="http://www.inkscape.org/namespaces/inkscape"
   height="235"
   viewBox="-16 0 266.24999 176.25035"
   width="355"
   version="1.1"
   id="svg8"
   sodipodi:docname="render.svg"
   inkscape:version="1.0.1 (3bc2e813f5, 2020-09-07)">
  <path
     d="m 82.819317,18.560795 h 12.125024 c 1.577005,0 2.856462,-1.215972 2.856462,-2.717885 0,-1.500499 -1.279457,-2.717884 -2.856462,-2.717884 H 82.819317 c -1.576974,0 -2.856464,1.217385 -2.856464,2.717884 0,1.501913 1.27949,2.717885 2.856464,2.717885 z m 0,0"
     id="path6-9"
     style="stroke-width:0.371507;fill:#444444;fill-opacity:1" />
  <metadata
     id="metadata14">
    <rdf:RDF>
      <cc:Work
         rdf:about="">
        <dc:format>image/svg+xml</dc:format>
        <dc:type
           rdf:resource="http://purl.org/dc/dcmitype/StillImage" />
        <dc:title />
      </cc:Work>
    </rdf:RDF>
  </metadata>
  <defs
     id="defs12" />
  <sodipodi:namedview
     pagecolor="#ffffff"
     bordercolor="#666666"
     borderopacity="1"
     objecttolerance="10"
     gridtolerance="10"
     guidetolerance="10"
     inkscape:pageopacity="0"
     inkscape:pageshadow="2"
     inkscape:window-width="1366"
     inkscape:window-height="714"
     id="namedview10"
     showgrid="false"
     showguides="true"
     inkscape:guide-bbox="true"
     inkscape:zoom="1.6970563"
     inkscape:cx="109.68752"
     inkscape:cy="122.45352"
     inkscape:window-x="0"
     inkscape:window-y="0"
     inkscape:window-maximized="1"
     inkscape:current-layer="svg8"
     inkscape:document-rotation="0"
     units="px"
     inkscape:object-nodes="true"
     inkscape:snap-global="true"
     inkscape:snap-bbox="false"
     inkscape:snap-intersection-paths="true"
     inkscape:object-paths="true"
     inkscape:snap-nodes="true"
     inkscape:snap-smooth-nodes="true">
    <sodipodi:guide
       position="76.461336,148.94365"
       orientation="0,-1"
       id="guide896" />
    <sodipodi:guide
       position="62.976694,119.43933"
       orientation="0,-1"
       id="guide898" />
    <sodipodi:guide
       position="56.282551,109.71842"
       orientation="1,0"
       id="guide900" />
    <sodipodi:guide
       position="79.209759,104.08749"
       orientation="1,0"
       id="guide902" />
  </sodipodi:namedview>
  <path
     d="m 205.93683,13.125026 h -98.55351 c -1.57702,0 -2.85647,1.217385 -2.85647,2.717884 0,1.501913 1.27945,2.717885 2.85647,2.717885 h 98.55499 c 1.63945,0 2.97395,1.269762 2.97395,2.831128 v 82.748237 c 0,1.5005 1.2795,2.71787 2.85648,2.71787 1.57848,0 2.85645,-1.21737 2.85645,-2.71787 V 21.391923 c 0,-4.558119 -3.89639,-8.266897 -8.68836,-8.266897 z m 0,0"
     id="path2-7"
     style="stroke-width:0.371507;fill:#444444;fill-opacity:1" />
  <path
     d="m 211.76874,113.2578 c -1.5785,0 -2.85648,1.21597 -2.85648,2.71789 v 5.37347 H 25.337687 V 21.391923 c 0,-1.561366 1.334521,-2.831128 2.974001,-2.831128 h 42.068646 c 1.577044,0 2.856465,-1.215972 2.856465,-2.717885 0,-1.500499 -1.279416,-2.717884 -2.856465,-2.717884 H 28.311688 c -4.790498,0 -8.686887,3.708778 -8.686887,8.266897 V 138.10096 c 0,3.5389 3.026039,6.41818 6.745374,6.41818 h 69.224344 v 13.17041 H 83.799727 c -1.576973,0 -2.85646,1.21738 -2.85646,2.71787 0,1.50191 1.279487,2.7179 2.85646,2.7179 h 66.650523 c 1.57847,0 2.85646,-1.21599 2.85646,-2.7179 0,-1.50049 -1.27799,-2.71787 -2.85646,-2.71787 h -11.79473 v -13.17041 h 69.2243 c 3.71932,0 6.74537,-2.87928 6.74537,-6.41818 v -22.12527 c 0,-1.50192 -1.27796,-2.71789 -2.85645,-2.71789 z m -78.82612,44.43175 H 101.3074 v -13.17041 h 31.63522 z m 74.9372,-18.60619 H 26.370175 c -0.569797,0 -1.032488,-0.44025 -1.032488,-0.9824 V 126.78493 H 208.91226 v 11.31603 c 0,0.54215 -0.46265,0.9824 -1.03244,0.9824 z m 0,0"
     id="path4-0"
     style="stroke-width:0.371507;fill:#444444;fill-opacity:1" />
  <path
     id="XMLID_16_"
     style="fill:#444444;fill-opacity:1;stroke-width:0.0711191"
     d="M 78.070312 36.408203 C 76.358761 36.408203 75.015625 37.976925 75.015625 39.974609 L 75.015625 45.351562 L 75.015625 64.990234 L 75.015625 70.369141 L 75.015625 72.183594 C 75.015625 74.181278 76.358761 75.748047 78.070312 75.748047 L 81.125 75.748047 L 99.503906 75.748047 L 102.55859 75.748047 C 104.27014 75.748047 105.61328 74.181278 105.61328 72.183594 L 105.61328 70.369141 L 105.61328 64.990234 L 105.61328 45.351562 L 105.61328 39.974609 C 105.61328 37.976925 104.27014 36.408203 102.55859 36.408203 L 99.503906 36.408203 L 81.125 36.408203 L 78.070312 36.408203 z M 77.292969 39.974609 L 78.847656 39.974609 C 79.262378 39.974609 79.623047 40.396806 79.623047 40.880859 L 79.623047 42.693359 C 79.623047 43.177414 79.262378 43.599609 78.847656 43.599609 L 77.292969 43.599609 C 76.878248 43.599609 76.517578 43.177414 76.517578 42.693359 L 76.517578 40.880859 C 76.517578 40.396806 76.878248 39.974609 77.292969 39.974609 z M 82.947266 39.974609 L 97.517578 39.974609 C 98.604775 39.974609 99.480469 40.84835 99.480469 41.935547 L 99.480469 68.40625 C 99.480469 69.493447 98.604775 70.369141 97.517578 70.369141 L 82.947266 70.369141 C 81.860069 70.369141 80.984375 69.493447 80.984375 68.40625 L 80.984375 41.935547 C 80.984375 40.84835 81.860069 39.974609 82.947266 39.974609 z M 101.78125 39.974609 L 103.33594 39.974609 C 103.75066 39.974609 104.11133 40.396806 104.11133 40.880859 L 104.11133 42.693359 C 104.11133 43.177414 103.75066 43.599609 103.33594 43.599609 L 101.78125 43.599609 C 101.36653 43.599609 101.00586 43.177414 101.00586 42.693359 L 101.00586 40.880859 C 101.00586 40.396806 101.31386 39.974609 101.78125 39.974609 z M 77.292969 45.351562 L 78.847656 45.351562 C 79.262378 45.351562 79.623047 45.775712 79.623047 46.259766 L 79.623047 48.072266 C 79.623047 48.556321 79.262378 48.978516 78.847656 48.978516 L 77.292969 48.978516 C 76.878248 48.978516 76.517578 48.556321 76.517578 48.072266 L 76.517578 46.259766 C 76.517578 45.714244 76.878248 45.351563 77.292969 45.351562 z M 101.78125 45.351562 L 103.33594 45.351562 C 103.75066 45.351562 104.11133 45.775712 104.11133 46.259766 L 104.11133 48.072266 C 104.11133 48.556321 103.75066 48.978516 103.33594 48.978516 L 101.78125 48.978516 C 101.36653 48.978516 101.00586 48.556321 101.00586 48.072266 L 101.00586 46.259766 C 101.00586 45.714244 101.31386 45.351563 101.78125 45.351562 z M 77.292969 50.669922 L 78.847656 50.669922 C 79.262378 50.669922 79.623047 51.092117 79.623047 51.576172 L 79.623047 53.388672 C 79.623047 53.872727 79.262378 54.294922 78.847656 54.294922 L 77.292969 54.294922 C 76.878248 54.294922 76.517578 53.872727 76.517578 53.388672 L 76.517578 51.576172 C 76.517578 51.092117 76.878248 50.669922 77.292969 50.669922 z M 101.78125 50.669922 L 103.33594 50.669922 C 103.75066 50.669922 104.11133 51.092117 104.11133 51.576172 L 104.11133 53.388672 C 104.11133 53.872727 103.75066 54.294922 103.33594 54.294922 L 101.78125 54.294922 C 101.36653 54.294922 101.00586 53.872727 101.00586 53.388672 L 101.00586 51.576172 C 101.00586 51.092117 101.31386 50.669922 101.78125 50.669922 z M 77.292969 56.046875 L 78.847656 56.046875 C 79.262378 56.046875 79.623047 56.471023 79.623047 56.955078 L 79.623047 58.767578 C 79.623047 59.251633 79.262378 59.673828 78.847656 59.673828 L 77.292969 59.673828 C 76.878248 59.673828 76.517578 59.251633 76.517578 58.767578 L 76.517578 56.955078 C 76.517578 56.471023 76.878248 56.046875 77.292969 56.046875 z M 101.78125 56.046875 L 103.33594 56.046875 C 103.75066 56.046875 104.11133 56.471023 104.11133 56.955078 L 104.11133 58.767578 C 104.11133 59.251633 103.75066 59.673828 103.33594 59.673828 L 101.78125 59.673828 C 101.36653 59.673828 101.00586 59.251633 101.00586 58.767578 L 101.00586 56.955078 C 101.00586 56.471023 101.31386 56.046875 101.78125 56.046875 z M 77.292969 61.425781 L 78.847656 61.425781 C 79.262378 61.425781 79.623047 61.847976 79.623047 62.332031 L 79.623047 64.146484 C 79.623047 64.630538 79.262378 65.052734 78.847656 65.052734 L 77.292969 65.052734 C 76.878248 65.052734 76.517578 64.630538 76.517578 64.146484 L 76.517578 62.332031 C 76.517578 61.786512 76.878248 61.425781 77.292969 61.425781 z M 101.78125 61.425781 L 103.33594 61.425781 C 103.75066 61.425781 104.11133 61.847976 104.11133 62.332031 L 104.11133 64.146484 C 104.11133 64.630538 103.75066 65.052734 103.33594 65.052734 L 101.78125 65.052734 C 101.36653 65.052734 101.00586 64.630538 101.00586 64.146484 L 101.00586 62.332031 C 101.00586 61.786512 101.31386 61.425781 101.78125 61.425781 z M 77.292969 66.742188 L 78.847656 66.742188 C 79.262378 66.742188 79.623047 67.166342 79.623047 67.650391 L 79.623047 69.462891 C 79.623047 69.946946 79.262378 70.369141 78.847656 70.369141 L 77.292969 70.369141 C 76.878248 70.369141 76.517578 69.946946 76.517578 69.462891 L 76.517578 67.650391 C 76.517578 67.166342 76.878248 66.742188 77.292969 66.742188 z M 101.78125 66.742188 L 103.33594 66.742188 C 103.75066 66.742188 104.11133 67.166342 104.11133 67.650391 L 104.11133 69.462891 C 104.11133 69.946946 103.75066 70.369141 103.33594 70.369141 L 101.78125 70.369141 C 101.36653 70.369141 101.00586 69.946946 101.00586 69.462891 L 101.00586 67.650391 C 101.00586 67.166342 101.31386 66.742188 101.78125 66.742188 z "
     transform="matrix(0.75000149,0,0,0.75000149,-16.000269,0)" />
  <polygon
     id="XMLID_23_"
     class="st2"
     points="209.2,324 209.2,184 325.6,254 "
     transform="matrix(0.06013448,0,0,0.05762563,36.123587,26.763747)"
     style="fill:#444444;fill-opacity:1" />
  <g
     id="g12"
     transform="matrix(0.50949455,0,0,0.50949455,36.970681,65.041149)"
     style="fill:#444444;fill-opacity:1">
    <path
       d="M 50.949,12.187 45.131,6.369 40.084,1.321 v 0 l -0.77,-0.77 C 38.964,0.201 38.48,0 37.985,0 H 8.963 C 7.777,0 6.5,0.916 6.5,2.926 V 39 55.537 56 c 0,0.837 0.842,1.653 1.838,1.91 0.05,0.013 0.098,0.032 0.15,0.042 C 8.644,57.983 8.803,58 8.963,58 h 40.074 c 0.16,0 0.319,-0.017 0.475,-0.048 0.052,-0.01 0.101,-0.029 0.152,-0.043 C 50.659,57.652 51.5,56.837 51.5,56 V 55.537 39 13.978 c 0,-0.767 -0.093,-1.334 -0.551,-1.791 z M 47.935,12 H 39.5 V 3.565 l 4.248,4.249 z M 8.963,2 H 37.558 C 37.525,2.126 37.5,2.256 37.5,2.391 V 14 h 11.608 c 0.135,0 0.265,-0.025 0.391,-0.058 0,0.015 10e-4,0.021 10e-4,0.036 v 12.693 l -8.311,-7.896 c -0.195,-0.185 -0.445,-0.284 -0.725,-0.274 -0.269,0.01 -0.521,0.127 -0.703,0.325 L 29.966,29.553 25.223,24.81 C 24.854,24.441 24.265,24.418 23.868,24.755 L 8.5,37.836 V 2.926 C 8.5,2.709 8.533,2 8.963,2 Z m 0,54 C 8.892,56 8.828,55.974 8.765,55.951 8.609,55.877 8.5,55.721 8.5,55.537 V 41 h 41 v 14.537 c 0,0.184 -0.11,0.34 -0.265,0.414 C 49.172,55.975 49.108,56 49.037,56 Z M 10.218,39 24.463,26.876 34.776,37.19 c 0.391,0.391 1.023,0.391 1.414,0 0.391,-0.391 0.391,-1.023 0,-1.414 L 31.383,30.969 40.551,20.928 49.5,29.429 V 39 Z"
       id="path2"
       style="fill:#444444;fill-opacity:1" />
    <path
       d="m 19.354,51.43 c -0.019,0.446 -0.171,0.764 -0.458,0.95 -0.287,0.186 -0.672,0.28 -1.155,0.28 -0.191,0 -0.396,-0.022 -0.615,-0.068 -0.219,-0.046 -0.429,-0.098 -0.629,-0.157 -0.201,-0.06 -0.385,-0.123 -0.554,-0.191 -0.169,-0.068 -0.299,-0.135 -0.39,-0.198 l -0.697,1.107 c 0.182,0.137 0.405,0.26 0.67,0.369 0.264,0.109 0.54,0.207 0.827,0.294 0.287,0.087 0.565,0.15 0.834,0.191 0.269,0.041 0.503,0.062 0.704,0.062 0.401,0 0.791,-0.039 1.169,-0.116 0.378,-0.077 0.713,-0.214 1.005,-0.41 0.292,-0.196 0.524,-0.456 0.697,-0.779 0.173,-0.323 0.26,-0.723 0.26,-1.196 V 43.72 h -1.668 z"
       id="path4"
       style="fill:#444444;fill-opacity:1" />
    <path
       d="M 28.767,44.744 C 28.434,44.471 28.058,44.265 27.639,44.129 27.22,43.992 26.796,43.924 26.368,43.924 H 23.47 V 54 h 1.641 v -3.637 h 1.217 c 0.528,0 1.012,-0.077 1.449,-0.232 0.437,-0.155 0.811,-0.374 1.121,-0.656 0.31,-0.282 0.551,-0.631 0.725,-1.046 0.173,-0.415 0.26,-0.877 0.26,-1.388 0,-0.483 -0.103,-0.918 -0.308,-1.306 -0.205,-0.388 -0.476,-0.717 -0.808,-0.991 z m -0.622,3.329 c -0.101,0.278 -0.232,0.494 -0.396,0.649 -0.164,0.155 -0.344,0.267 -0.54,0.335 -0.196,0.068 -0.395,0.103 -0.595,0.103 H 25.11 v -3.992 h 1.23 c 0.419,0 0.756,0.066 1.012,0.198 0.255,0.132 0.453,0.296 0.595,0.492 0.141,0.196 0.234,0.401 0.28,0.615 0.045,0.214 0.068,0.403 0.068,0.567 0,0.411 -0.05,0.755 -0.15,1.033 z"
       id="path6"
       style="fill:#444444;fill-opacity:1" />
    <path
       d="m 35.76,49.926 h 1.709 v 2.488 c -0.073,0.101 -0.187,0.178 -0.342,0.232 -0.155,0.055 -0.317,0.098 -0.485,0.13 -0.169,0.032 -0.337,0.055 -0.506,0.068 -0.169,0.014 -0.303,0.021 -0.403,0.021 -0.328,0 -0.641,-0.077 -0.937,-0.232 -0.296,-0.155 -0.561,-0.392 -0.793,-0.711 -0.232,-0.319 -0.415,-0.729 -0.547,-1.23 -0.132,-0.501 -0.203,-1.094 -0.212,-1.777 0.009,-0.702 0.082,-1.294 0.219,-1.777 0.137,-0.483 0.326,-0.877 0.567,-1.183 0.241,-0.306 0.515,-0.521 0.82,-0.649 0.305,-0.128 0.626,-0.191 0.964,-0.191 0.301,0 0.592,0.06 0.875,0.178 0.282,0.118 0.533,0.31 0.752,0.574 l 1.135,-1.012 c -0.374,-0.364 -0.798,-0.638 -1.271,-0.82 -0.474,-0.183 -0.984,-0.273 -1.531,-0.273 -0.593,0 -1.144,0.111 -1.654,0.335 -0.511,0.224 -0.955,0.549 -1.333,0.978 -0.378,0.429 -0.675,0.964 -0.889,1.606 -0.214,0.643 -0.321,1.388 -0.321,2.235 0,0.847 0.107,1.595 0.321,2.242 0.214,0.647 0.51,1.185 0.889,1.613 0.378,0.429 0.82,0.752 1.326,0.971 0.506,0.219 1.06,0.328 1.661,0.328 0.301,0 0.604,-0.022 0.909,-0.068 0.305,-0.046 0.602,-0.123 0.889,-0.232 0.287,-0.109 0.561,-0.248 0.82,-0.417 0.259,-0.169 0.494,-0.385 0.704,-0.649 V 48.808 H 35.76 Z"
       id="path8"
       style="fill:#444444;fill-opacity:1" />
    <path
       d="m 19.069,23.638 c 3.071,0 5.569,-2.498 5.569,-5.569 0,-3.071 -2.498,-5.569 -5.569,-5.569 -3.071,0 -5.569,2.498 -5.569,5.569 0,3.071 2.498,5.569 5.569,5.569 z m 0,-9.138 c 1.968,0 3.569,1.601 3.569,3.569 0,1.968 -1.601,3.569 -3.569,3.569 -1.968,0 -3.569,-1.601 -3.569,-3.569 0,-1.968 1.601,-3.569 3.569,-3.569 z"
       id="path10"
       style="fill:#444444;fill-opacity:1" />
  </g>
  <g
     id="g14"
     transform="matrix(0.50949455,0,0,0.50949455,71.395798,27.3067)"
     style="fill:#444444;fill-opacity:1" />
  <g
     id="g16"
     transform="matrix(0.50949455,0,0,0.50949455,71.395798,27.3067)"
     style="fill:#444444;fill-opacity:1" />
  <g
     id="g18"
     transform="matrix(0.50949455,0,0,0.50949455,71.395798,27.3067)"
     style="fill:#444444;fill-opacity:1" />
  <g
     id="g20"
     transform="matrix(0.50949455,0,0,0.50949455,71.395798,27.3067)"
     style="fill:#444444;fill-opacity:1" />
  <g
     id="g22"
     transform="matrix(0.50949455,0,0,0.50949455,71.395798,27.3067)"
     style="fill:#444444;fill-opacity:1" />
  <g
     id="g24"
     transform="matrix(0.50949455,0,0,0.50949455,71.395798,27.3067)"
     style="fill:#444444;fill-opacity:1" />
  <g
     id="g26"
     transform="matrix(0.50949455,0,0,0.50949455,71.395798,27.3067)"
     style="fill:#444444;fill-opacity:1" />
  <g
     id="g28"
     transform="matrix(0.50949455,0,0,0.50949455,71.395798,27.3067)"
     style="fill:#444444;fill-opacity:1" />
  <g
     id="g30"
     transform="matrix(0.50949455,0,0,0.50949455,71.395798,27.3067)"
     style="fill:#444444;fill-opacity:1" />
  <g
     id="g32"
     transform="matrix(0.50949455,0,0,0.50949455,71.395798,27.3067)"
     style="fill:#444444;fill-opacity:1" />
  <g
     id="g34"
     transform="matrix(0.50949455,0,0,0.50949455,71.395798,27.3067)"
     style="fill:#444444;fill-opacity:1" />
  <g
     id="g36"
     transform="matrix(0.50949455,0,0,0.50949455,71.395798,27.3067)"
     style="fill:#444444;fill-opacity:1" />
  <g
     id="g38"
     transform="matrix(0.50949455,0,0,0.50949455,71.395798,27.3067)"
     style="fill:#444444;fill-opacity:1" />
  <g
     id="g40"
     transform="matrix(0.50949455,0,0,0.50949455,71.395798,27.3067)"
     style="fill:#444444;fill-opacity:1" />
  <g
     id="g42"
     transform="matrix(0.50949455,0,0,0.50949455,71.395798,27.3067)"
     style="fill:#444444;fill-opacity:1" />
</svg>
