<?xml version="1.0" encoding="UTF-8" standalone="no"?>
<svg
   xmlns:dc="http://purl.org/dc/elements/1.1/"
   xmlns:cc="http://creativecommons.org/ns#"
   xmlns:rdf="http://www.w3.org/1999/02/22-rdf-syntax-ns#"
   xmlns:svg="http://www.w3.org/2000/svg"
   xmlns="http://www.w3.org/2000/svg"
   xmlns:sodipodi="http://sodipodi.sourceforge.net/DTD/sodipodi-0.dtd"
   xmlns:inkscape="http://www.inkscape.org/namespaces/inkscape"
   height="235"
   viewBox="-16 0 266.24999 176.25035"
   width="355"
   version="1.1"
   id="svg8"
   sodipodi:docname="vr.svg"
   inkscape:version="1.0.1 (3bc2e813f5, 2020-09-07)">
  <metadata
     id="metadata14">
    <rdf:RDF>
      <cc:Work
         rdf:about="">
        <dc:format>image/svg+xml</dc:format>
        <dc:type
           rdf:resource="http://purl.org/dc/dcmitype/StillImage" />
        <dc:title />
      </cc:Work>
    </rdf:RDF>
  </metadata>
  <defs
     id="defs12" />
  <sodipodi:namedview
     pagecolor="#ffffff"
     bordercolor="#666666"
     borderopacity="1"
     objecttolerance="10"
     gridtolerance="10"
     guidetolerance="10"
     inkscape:pageopacity="0"
     inkscape:pageshadow="2"
     inkscape:window-width="1366"
     inkscape:window-height="714"
     id="namedview10"
     showgrid="false"
     showguides="true"
     inkscape:guide-bbox="true"
     inkscape:zoom="1.6970563"
     inkscape:cx="175.47052"
     inkscape:cy="135.87215"
     inkscape:window-x="0"
     inkscape:window-y="0"
     inkscape:window-maximized="1"
     inkscape:current-layer="svg8"
     inkscape:document-rotation="0"
     units="px"
     inkscape:object-nodes="true"
     inkscape:snap-global="true"
     inkscape:snap-bbox="false"
     inkscape:snap-intersection-paths="true"
     inkscape:object-paths="true"
     inkscape:snap-nodes="true"
     inkscape:snap-smooth-nodes="true" />
  <path
     id="path1081"
     style="stroke-width:0.252209;stroke:#444444;stroke-opacity:1;fill:#444444;fill-opacity:1"
     d="m 179.78932,156.0692 -1.06143,-6.41633 c -0.17255,-1.04637 -1.1351,-1.75027 -2.14807,-1.57101 -1.01297,0.17919 -1.69342,1.17249 -1.5209,2.21885 l 1.06145,6.41527 c 0.10661,0.64886 -0.0601,1.28267 -0.47113,1.78536 -0.41001,0.50265 -0.98678,0.77897 -1.62362,0.77897 h -13.04544 l -2.33029,-14.79012 c -0.16476,-1.04735 -1.11865,-1.75828 -2.13544,-1.58806 -1.01493,0.17024 -1.70317,1.15751 -1.53837,2.20586 l 2.23336,14.17232 H 83.076137 l 2.232348,-14.17232 c 0.165775,-1.04835 -0.523405,-2.03562 -1.537357,-2.20586 -1.012938,-0.17022 -1.970679,0.53971 -2.136417,1.58806 l -2.329358,14.79012 H 66.258985 c -0.636866,0 -1.213632,-0.27632 -1.623617,-0.77897 -0.410054,-0.50269 -0.577739,-1.1365 -0.470157,-1.78536 l 2.542574,-15.37688 c 0.8695,-5.2598 4.248663,-9.71157 8.863657,-11.89939 0.243304,-0.053 0.469144,-0.15521 0.666922,-0.29639 0.507926,-0.21127 1.030436,-0.39652 1.563508,-0.5517 l 22.335668,-4.90234 c 5.93714,4.11533 12.84083,6.28712 20.00525,6.28712 7.16437,0 14.06706,-2.17179 20.00526,-6.28712 l 22.33461,4.90234 c 5.7385,1.67516 10.08989,6.67262 11.09413,12.74748 0.17353,1.04637 1.1351,1.74929 2.14807,1.57104 1.01294,-0.17823 1.6944,-1.17252 1.52087,-2.21887 -1.24849,-7.55279 -6.6729,-13.76281 -13.81795,-15.81948 -0.0368,-0.011 -0.0747,-0.02 -0.11343,-0.0281 l -23.17403,-5.0876 -2.24403,-0.49264 c -1.44431,-0.29936 -3.05925,-2.34302 -3.05925,-4.62795 v -6.65965 c 3.43437,-3.18212 7.01413,-6.91796 8.52538,-9.211908 2.56486,-3.889046 4.05572,-8.437926 4.31161,-13.153037 l 0.0659,-1.220579 h 0.86856 c 1.52379,0 2.82465,-1.006298 3.31222,-2.410115 h 1.91154 c 2.11317,0 3.83279,-1.775303 3.83279,-3.958125 V 61.366633 c 0,-2.182826 -1.71962,-3.959126 -3.83279,-3.959126 h -1.91154 c -0.45945,-1.32272 -1.6411,-2.291972 -3.05149,-2.400111 -0.68146,-5.151661 -2.8402,-9.974906 -6.17377,-13.736769 -8.19966,-9.24897 -20.25149,-9.387159 -20.92909,-9.387159 h -0.0137 -3.21624 c -0.52345,0.005 -12.68485,0.06809 -20.945576,9.385151 -3.334498,3.76087 -5.49228,8.584111 -6.174675,13.737779 -1.414261,0.104128 -2.600773,1.075391 -3.061184,2.401109 h -1.911551 c -2.113145,0 -3.832799,1.7763 -3.832799,3.959126 v 6.405285 h -2.899298 c -3.523511,0 -6.388904,2.959834 -6.388904,6.599539 v 51.923183 c -5.359512,2.81865 -9.250438,8.14856 -10.283758,14.39664 L 60.49614,156.0692 c -0.290858,1.75828 0.181212,3.54856 1.294048,4.91133 1.113774,1.36277 2.742261,2.14479 4.468662,2.14479 h 107.76664 c 1.72637,0 3.35587,-0.78202 4.46867,-2.14479 1.11377,-1.36277 1.5858,-3.15305 1.29503,-4.91133 z M 152.12624,61.252458 h 1.70507 c 0.061,0 0.11047,0.05107 0.11047,0.114147 v 16.654553 c 0,0.06308 -0.0495,0.114147 -0.11047,0.114147 h -1.70507 z m -16.91405,61.013962 c -4.62669,2.53828 -9.76807,3.86501 -15.0694,3.86501 -5.30331,0 -10.44662,-1.32773 -15.07426,-3.867 2.57655,-1.55101 4.10225,-4.83825 4.10225,-7.62887 v -3.38939 c 1.52574,1.25661 2.79851,2.17482 3.52941,2.49723 2.36516,1.04133 4.90388,1.56301 7.4426,1.56301 2.53872,0 5.07738,-0.52066 7.44164,-1.56301 0.73181,-0.32241 2.00458,-1.24162 3.52935,-2.49723 v 3.38939 c 0,2.79261 1.52963,6.08386 4.09841,7.63086 z M 100.33621,43.865955 c 7.12658,-8.038403 18.08305,-8.137524 18.19556,-8.137524 h 3.22691 v 0 c 0.16188,0 11.04564,0.07909 18.18968,8.138525 2.70933,3.05696 4.50261,6.949997 5.15499,11.130406 H 95.180316 c 0.653321,-4.182414 2.446573,-8.075446 5.155894,-11.131407 z M 91.871932,58.84234 h 1.220381 0.031 55.280607 v 21.703095 h -20.70709 c -0.99356,0 -1.96776,-0.280373 -2.81788,-0.811051 -2.92449,-1.824371 -6.55756,-1.824371 -9.48209,0 -0.85009,0.530678 -1.82431,0.811051 -2.81784,0.811051 h -3.36074 c -1.02751,0 -1.86115,0.861109 -1.86115,1.922484 0,1.06137 0.83364,1.922483 1.86115,1.922483 h 3.36074 c 1.67108,0 3.31124,-0.471608 4.74198,-1.364766 1.73805,-1.083399 3.89677,-1.083399 5.63384,0 1.43071,0.893158 3.06988,1.364766 4.74102,1.364766 h 16.31595 l -0.0553,1.004302 c -0.21808,4.018204 -1.48699,7.892213 -3.67088,11.204504 -2.68703,4.076272 -12.45509,12.855642 -14.16115,13.606612 -3.80272,1.67518 -8.16282,1.67518 -11.96455,0 -0.56028,-0.24631 -2.60755,-1.78832 -5.5941,-4.51285 -0.0155,-0.0151 -0.0322,-0.0301 -0.0485,-0.044 -0.36737,-0.33544 -0.74834,-0.68889 -1.14288,-1.05939 -3.41889,-3.21214 -6.2445,-6.274113 -7.375701,-7.990333 -2.183928,-3.312275 -3.453768,-7.187278 -3.671892,-11.206492 l -0.05431,-1.002297 h 4.277733 c 1.02846,0 1.86112,-0.861113 1.86112,-1.922484 0,-1.062373 -0.83266,-1.922483 -1.86112,-1.922483 h -8.678437 z m -5.537876,2.524265 c 0,-0.06308 0.04946,-0.114147 0.110494,-0.114147 h 1.705084 V 78.135305 H 86.44455 c -0.06104,0 -0.110494,-0.05106 -0.110494,-0.114147 z m -9.289187,13.004836 c 0,-1.518967 1.196139,-2.754567 2.666643,-2.754567 h 2.900276 v 6.404284 c 0,2.182833 1.719618,3.959126 3.832762,3.959126 h 1.910621 c 0.487537,1.403821 1.788412,2.410118 3.313208,2.410118 h 0.876244 l 0.06687,1.218583 c 0.255927,4.716103 1.746781,9.265987 4.311612,13.155024 1.511244,2.293961 5.090995,6.029811 8.525395,9.211931 v 6.65962 c 0,2.28495 -1.61492,4.3286 -3.07965,4.63299 l -2.22363,0.48763 -23.100371,5.07057 z M 137.93337,63.10509 c 0,-0.346456 0.27146,-0.659854 0.67079,-0.659854 h 3.16299 c 2.09279,0 3.78622,0.825064 3.78622,3.448458 0,1.897459 -0.89467,2.920785 -2.0928,3.300265 l 2.0928,4.0102 c 0.0639,0.08209 0.0795,0.198252 0.0795,0.264337 0,0.544712 -0.6863,1.121454 -1.29408,1.121454 -0.28692,0 -0.55835,-0.181235 -0.71827,-0.511664 l -2.26828,-4.554888 h -1.34254 v 4.307571 c 0,0.445579 -0.51084,0.67687 -1.03815,0.67687 -0.51182,0 -1.03913,-0.231291 -1.03913,-0.67687 V 63.10509 Z m 2.07635,1.220571 v 3.514554 h 1.75743 c 1.03815,0 1.70893,-0.445575 1.70893,-1.749264 0,-1.303692 -0.67078,-1.76529 -1.70893,-1.76529 z"
     sodipodi:nodetypes="ccscccsccccccccccssccccccscccscccccsccccscsssscccsccsccsscssccccssccccsssscccscsccsccscsscscccscccccsccsssssccscccccccccccsssccssccssssscsscsccccscccscsssccsscccsssccccsssc" />
  <path
     id="path1083"
     style="opacity:1;fill:none;stroke:#444444;stroke-width:4.66725927;stroke-linejoin:round;stroke-miterlimit:4;stroke-dasharray:none;stroke-opacity:1;paint-order:fill markers stroke;fill-opacity:1"
     d="m 21.958328,40.806295 c 0,0 34.37136,-25.347742 95.259672,-25.347742 60.88835,0 95.07366,25.347742 95.07366,25.347742 v 83.163645 c 0,0 -62.3671,25.24435 -95.07366,25.25233 -32.706533,0.008 -95.259672,-25.25233 -95.259672,-25.25233 z"
     sodipodi:nodetypes="czcczcc" />
  <path
     style="fill:none;stroke:#444444;stroke-width:4.61159;stroke-linecap:round;stroke-linejoin:round;stroke-miterlimit:4;stroke-dasharray:none;stroke-opacity:1"
     d="M 32.836277,44.809415 65.868991,58.097359 V 105.49955 L 32.836277,118.78749"
     id="path1085"
     sodipodi:nodetypes="cccc" />
  <path
     style="fill:none;stroke:#444444;stroke-width:2.95502;stroke-linecap:round;stroke-linejoin:miter;stroke-miterlimit:4;stroke-dasharray:none;stroke-opacity:1"
     d="M 35.400497,58.672319 V 103.67016"
     id="path1087"
     sodipodi:nodetypes="cc" />
  <path
     style="fill:none;stroke:#444444;stroke-width:2.95502;stroke-linecap:round;stroke-linejoin:miter;stroke-miterlimit:4;stroke-dasharray:none;stroke-opacity:1"
     d="M 44.685785,63.060548 V 99.281925"
     id="path1089"
     sodipodi:nodetypes="cc" />
  <path
     style="fill:none;stroke:#444444;stroke-width:2.95502;stroke-linecap:round;stroke-linejoin:miter;stroke-miterlimit:4;stroke-dasharray:none;stroke-opacity:1"
     d="M 54.628865,66.624916 V 95.717561"
     id="path1091"
     sodipodi:nodetypes="cc" />
  <path
     style="fill:none;stroke:#444444;stroke-width:4.61159;stroke-linecap:round;stroke-linejoin:round;stroke-miterlimit:4;stroke-dasharray:none;stroke-opacity:1"
     d="M 201.21352,44.809415 168.1808,58.097359 v 47.402191 l 33.03272,13.28794"
     id="path1093"
     sodipodi:nodetypes="cccc" />
  <path
     style="fill:none;stroke:#444444;stroke-width:2.95502;stroke-linecap:round;stroke-linejoin:miter;stroke-miterlimit:4;stroke-dasharray:none;stroke-opacity:1"
     d="M 198.64932,58.672319 V 103.67016"
     id="path1095"
     sodipodi:nodetypes="cc" />
  <path
     style="fill:none;stroke:#444444;stroke-width:2.95502;stroke-linecap:round;stroke-linejoin:miter;stroke-miterlimit:4;stroke-dasharray:none;stroke-opacity:1"
     d="M 189.36401,63.060548 V 99.281925"
     id="path1097"
     sodipodi:nodetypes="cc" />
  <path
     style="fill:none;stroke:#444444;stroke-width:2.95502;stroke-linecap:round;stroke-linejoin:miter;stroke-miterlimit:4;stroke-dasharray:none;stroke-opacity:1"
     d="M 179.42097,66.624916 V 95.717561"
     id="path1099"
     sodipodi:nodetypes="cc" />
  <path
     d="m 127.9635,63.48157 c -0.0155,-0.06483 -0.0296,-0.129664 -0.0296,-0.162079 0,-0.517677 0.70264,-0.874255 1.22489,-0.874255 0.32914,0 0.58293,0.112963 0.65729,0.421408 l 2.28662,8.773971 2.27119,-8.773971 c 0.0744,-0.308445 0.32909,-0.421408 0.65733,-0.421408 0.52316,0 1.2258,0.372295 1.2258,0.874255 0,0.04911 -0.0155,0.09725 -0.031,0.162079 l -2.86863,10.182597 c -0.13422,0.486242 -0.68728,0.712176 -1.25484,0.712176 -0.56758,0 -1.10614,-0.225934 -1.2548,-0.712176 z m 0,0"
     id="path2"
     style="stroke-width:0.241593;stroke:#444444;stroke-opacity:1;fill:#444444;fill-opacity:1" />
</svg>
