<?xml version="1.0" encoding="UTF-8" standalone="no"?>
<svg
   xmlns:dc="http://purl.org/dc/elements/1.1/"
   xmlns:cc="http://creativecommons.org/ns#"
   xmlns:rdf="http://www.w3.org/1999/02/22-rdf-syntax-ns#"
   xmlns:svg="http://www.w3.org/2000/svg"
   xmlns="http://www.w3.org/2000/svg"
   xmlns:sodipodi="http://sodipodi.sourceforge.net/DTD/sodipodi-0.dtd"
   xmlns:inkscape="http://www.inkscape.org/namespaces/inkscape"
   width="500"
   height="210"
   viewBox="0 0 132.29166 55.562501"
   version="1.1"
   id="svg8"
   inkscape:export-filename="/home/fatih/bitmap.png"
   inkscape:export-xdpi="96"
   inkscape:export-ydpi="96"
   inkscape:version="1.0.1 (3bc2e813f5, 2020-09-07)"
   sodipodi:docname="logo.svg">
  <defs
     id="defs2" />
  <sodipodi:namedview
     id="base"
     pagecolor="#ffffff"
     bordercolor="#666666"
     borderopacity="1.0"
     inkscape:pageopacity="0.0"
     inkscape:pageshadow="2"
     inkscape:zoom="0.7"
     inkscape:cx="292.7538"
     inkscape:cy="85.854191"
     inkscape:document-units="px"
     inkscape:current-layer="layer1"
     inkscape:document-rotation="0"
     showgrid="false"
     units="px"
     showguides="true"
     inkscape:guide-bbox="true"
     inkscape:snap-intersection-paths="true"
     inkscape:object-paths="true"
     inkscape:window-width="1366"
     inkscape:window-height="714"
     inkscape:window-x="0"
     inkscape:window-y="0"
     inkscape:window-maximized="1">
    <sodipodi:guide
       position="0,132.29166"
       orientation="-1,0"
       id="guide24"
       inkscape:label=""
       inkscape:locked="false"
       inkscape:color="rgb(0,0,255)" />
    <sodipodi:guide
       position="499.99999,132.29166"
       orientation="0,1"
       id="guide26"
       inkscape:label=""
       inkscape:locked="false"
       inkscape:color="rgb(0,0,255)" />
    <sodipodi:guide
       position="132.29166,0"
       orientation="-1,0"
       id="guide28"
       inkscape:label=""
       inkscape:locked="false"
       inkscape:color="rgb(0,0,255)" />
    <sodipodi:guide
       position="0,55.562499"
       orientation="0,1"
       id="guide30"
       inkscape:label=""
       inkscape:locked="false"
       inkscape:color="rgb(0,0,255)" />
    <sodipodi:guide
       position="0,0"
       orientation="0,1"
       id="guide34"
       inkscape:label=""
       inkscape:locked="false"
       inkscape:color="rgb(0,0,255)" />
    <sodipodi:guide
       position="28.865108,0"
       orientation="1,0"
       id="guide36" />
  </sodipodi:namedview>
  <metadata
     id="metadata5">
    <rdf:RDF>
      <cc:Work
         rdf:about="">
        <dc:format>image/svg+xml</dc:format>
        <dc:type
           rdf:resource="http://purl.org/dc/dcmitype/StillImage" />
        <dc:title></dc:title>
      </cc:Work>
    </rdf:RDF>
  </metadata>
  <g
     inkscape:label="Katman 1"
     inkscape:groupmode="layer"
     id="layer1">
    <g
       id="Layer1002"
       transform="matrix(0.16365605,0,0,0.16874378,412.78051,1217.6681)">
      <path
         d="m -2252.7136,-7208.2372 h -53.8583 l 26.9292,53.8583 z"
         style="fill:#f06868;fill-rule:evenodd"
         id="path538" />
      <path
         d="m -2225.7845,-7154.3789 h -53.8582 l 26.9291,-53.8583 z"
         style="fill:#e02424;fill-rule:evenodd"
         id="path540" />
      <path
         d="m -2225.7845,-7154.3789 h -53.8582 l 26.9291,53.8582 z"
         style="fill:#ca0b0b;fill-rule:evenodd"
         id="path542" />
      <path
         d="m -2198.8553,-7100.5207 h -53.8583 l 26.9291,-53.8582 z"
         style="fill:#ac0505;fill-rule:evenodd"
         id="path544" />
      <path
         d="m -2198.8553,-7100.5207 h -53.8583 l 26.9291,53.8583 z"
         style="fill:#ca0b0b;fill-rule:evenodd"
         id="path546" />
      <path
         d="m -2171.9262,-7154.3789 h -53.8583 l 26.9292,53.8582 z"
         style="fill:#8a0808;fill-rule:evenodd"
         id="path548" />
      <path
         d="m -2171.9262,-7154.3789 h -53.8583 l 26.9292,-53.8583 z"
         style="fill:#5f0404;fill-rule:evenodd"
         id="path550" />
      <path
         d="m -2144.9971,-7208.2372 h -53.8582 l 26.9291,53.8583 z"
         style="fill:#e30016;fill-rule:evenodd"
         id="path552" />
      <path
         d="m -2144.9971,-7208.2372 h -53.8582 l 80.7874,161.5748 53.8582,-107.7165 53.8583,107.7165 80.7874,-161.5748 h -53.8583 l -26.9291,53.8583 -26.9291,-53.8583 h -53.8583 l -26.9291,53.8583 z"
         style="fill:#3a3a3a;fill-rule:evenodd"
         id="path554" />
      <path
         d="m -2144.9971,-7208.2372 h -53.8582 l 26.9291,53.8583 z"
         style="fill:#4a4c4a;fill-rule:evenodd"
         id="path556" />
    </g>
    <path
       d="m 118.18282,53.671287 c 0.26864,0 0.52584,-0.05205 0.76808,-0.157473 0.24341,-0.105334 0.46266,-0.259207 0.65788,-0.460485 0.19284,-0.19883 0.33981,-0.423749 0.44084,-0.67592 0.10106,-0.252136 0.15152,-0.519664 0.15152,-0.801398 0,-0.284081 -0.0505,-0.5552 -0.15267,-0.812063 -0.10215,-0.256911 -0.24913,-0.482962 -0.43969,-0.679514 -0.19288,-0.19883 -0.41108,-0.350412 -0.65444,-0.454545 -0.24225,-0.104187 -0.5006,-0.156274 -0.77152,-0.156274 -0.27323,0 -0.53269,0.05209 -0.77724,0.156274 -0.24451,0.104131 -0.46043,0.255715 -0.64868,0.454545 -0.19288,0.201244 -0.3398,0.428541 -0.44084,0.683058 -0.10106,0.254515 -0.15156,0.524438 -0.15156,0.808519 0,0.281734 0.0494,0.548113 0.14924,0.797855 0.1,0.24979 0.248,0.475891 0.44316,0.679463 0.19745,0.203674 0.41678,0.357551 0.65672,0.461734 0.24109,0.104186 0.49828,0.156224 0.7692,0.156224 z m 2.63141,-2.095276 c 0,0.363441 -0.0655,0.705534 -0.19517,1.02635 -0.12973,0.321962 -0.31916,0.607243 -0.56826,0.857017 -0.24918,0.24979 -0.53618,0.441552 -0.85992,0.577677 -0.32495,0.134945 -0.66018,0.202492 -1.00806,0.202492 -0.34783,0 -0.68194,-0.06755 -1.00456,-0.202492 -0.32148,-0.136125 -0.60734,-0.327887 -0.85646,-0.577677 -0.25146,-0.25212 -0.44201,-0.538597 -0.57408,-0.860611 -0.13081,-0.320765 -0.19633,-0.661711 -0.19633,-1.022756 0,-0.363439 0.0655,-0.705535 0.19633,-1.028696 0.13207,-0.321963 0.32262,-0.60962 0.57408,-0.861808 0.24681,-0.247378 0.53156,-0.437992 0.85532,-0.57179 0.32261,-0.133744 0.65787,-0.201225 1.0057,-0.201225 0.35015,0 0.68658,0.06748 1.01149,0.201225 0.32373,0.133798 0.60963,0.324412 0.85649,0.57179 0.2491,0.249792 0.43853,0.536268 0.56826,0.858231 0.12972,0.323196 0.19517,0.666504 0.19517,1.032273 z m 0.95866,2.528541 v -5.078411 h 1.15727 c 0.32952,0 0.57175,0.01892 0.72443,0.05686 0.15389,0.03903 0.28934,0.104132 0.40644,0.196452 0.1458,0.117193 0.25829,0.275845 0.33866,0.473496 0.0815,0.19775 0.12179,0.416729 0.12179,0.657037 0,0.415531 -0.11262,0.732754 -0.3376,0.948188 -0.22616,0.216633 -0.55567,0.324359 -0.99082,0.324359 h -0.10444 l 1.88058,2.422014 h -0.74399 l -1.79789,-2.422014 h -0.0826 v 2.422014 z m 0.57174,-4.567034 v 1.697546 h 0.44659 c 0.45811,0 0.76465,-0.06038 0.91965,-0.182294 0.15498,-0.120787 0.23191,-0.332627 0.23191,-0.635708 0,-0.325491 -0.0792,-0.552806 -0.23882,-0.684188 -0.15959,-0.130204 -0.46382,-0.195356 -0.91274,-0.195356 z m 3.11474,4.567034 v -5.078411 h 0.57865 v 2.258669 l 2.06772,-2.258669 h 0.69915 l -2.11134,2.285888 2.32033,2.792523 h -0.75657 l -2.21929,-2.733363 v 2.733363 z m 5.86328,-2.818544 c 0.32034,0.140816 0.56258,0.327836 0.72444,0.561074 0.16306,0.233186 0.24457,0.510179 0.24457,0.828649 0,0.466425 -0.14468,0.842876 -0.43283,1.128103 -0.28817,0.285313 -0.66936,0.428577 -1.14581,0.428577 -0.38803,0 -0.71296,-0.10183 -0.97587,-0.306608 -0.26173,-0.204771 -0.43857,-0.494825 -0.53154,-0.871275 l 0.53154,-0.271071 c 0.0724,0.307805 0.19063,0.540993 0.35592,0.699612 0.16417,0.158652 0.37084,0.237963 0.61995,0.237963 0.29395,0 0.53162,-0.08762 0.71411,-0.261654 0.18143,-0.175207 0.27208,-0.402504 0.27208,-0.681809 0,-0.227299 -0.0632,-0.423834 -0.19059,-0.591887 -0.12626,-0.168119 -0.31683,-0.308986 -0.57287,-0.425032 l -0.59931,-0.263949 c -0.3272,-0.140918 -0.57172,-0.322013 -0.73131,-0.544519 -0.16075,-0.221376 -0.24108,-0.487755 -0.24108,-0.797905 0,-0.361043 0.12975,-0.659383 0.39032,-0.894899 0.26062,-0.235583 0.59241,-0.353974 0.99652,-0.353974 0.2951,0 0.55223,0.06509 0.7681,0.194106 0.21695,0.130253 0.38574,0.320816 0.50631,0.574134 l -0.48452,0.31847 c -0.10902,-0.196536 -0.23303,-0.342094 -0.36968,-0.437991 -0.13661,-0.09586 -0.29161,-0.14441 -0.46381,-0.14441 -0.22045,0 -0.40069,0.06978 -0.54078,0.208314 -0.14005,0.138522 -0.21006,0.314875 -0.21006,0.53031 0,0.179949 0.054,0.336221 0.1619,0.467624 0.10674,0.132598 0.27435,0.248593 0.50051,0.350429 z"
       style="fill:#3a3a3a;fill-rule:evenodd;stroke-width:0.166181"
       id="path559" />
    <path
       d="M 120.88215,46.626554 V 32.700348 h 0.25469 0.22962 l 9.39515,10.579392 V 32.700348 h 1.53005 v 13.926206 h -0.26201 -0.24726 l -9.37444,-10.445174 0.004,10.445174 z"
       style="fill:#3a3a3a;fill-rule:evenodd;stroke-width:0.166181"
       id="path561" />
    <path
       d="m 118.25329,39.692651 c 0,0.996601 -0.1795,1.93475 -0.53523,2.814478 -0.35576,0.882953 -0.87524,1.665316 -1.55843,2.35023 -0.68321,0.684963 -1.47026,1.210838 -2.35809,1.584183 -0.89099,0.370022 -1.8103,0.5551 -2.76424,0.5551 -0.95393,0 -1.8701,-0.185078 -2.75478,-0.5551 -0.88154,-0.373345 -1.66547,-0.89922 -2.34867,-1.584183 -0.68951,-0.691427 -1.21211,-1.477031 -1.57418,-2.359984 -0.35889,-0.879693 -0.53837,-1.814636 -0.53837,-2.804724 0,-0.99655 0.17948,-1.934748 0.53837,-2.82094 0.36207,-0.882952 0.88467,-1.671811 1.57418,-2.36324 0.67688,-0.678451 1.45769,-1.201084 2.34552,-1.567917 0.88468,-0.366831 1.804,-0.551841 2.75793,-0.551841 0.96025,0 1.88271,0.18501 2.77366,0.551841 0.88786,0.366833 1.67178,0.889466 2.34867,1.567917 0.68319,0.684964 1.20267,1.470534 1.55843,2.353521 0.35573,0.886208 0.53523,1.827595 0.53523,2.830659 z m -7.21599,5.745777 c 0.73668,0 1.44193,-0.142824 2.10624,-0.431731 0.66742,-0.288923 1.26878,-0.7109 1.80399,-1.262794 0.52889,-0.545346 0.93189,-1.162104 1.20895,-1.853565 0.27704,-0.691429 0.4156,-1.425093 0.4156,-2.197687 0,-0.779056 -0.13856,-1.522474 -0.41875,-2.22686 -0.28021,-0.704439 -0.68316,-1.324486 -1.2058,-1.863336 -0.52889,-0.545381 -1.12711,-0.960863 -1.79453,-1.246562 -0.66432,-0.285665 -1.37271,-0.428491 -2.1157,-0.428491 -0.74929,0 -1.46084,0.142826 -2.13143,0.428491 -0.67056,0.285699 -1.26248,0.701181 -1.77879,1.246562 -0.52892,0.551859 -0.93193,1.175113 -1.20896,1.873038 -0.27708,0.697942 -0.41561,1.438102 -0.41561,2.217158 0,0.772594 0.13541,1.503001 0.40929,2.187966 0.2739,0.684931 0.68005,1.30498 1.21528,1.863286 0.54152,0.558356 1.14282,0.980384 1.80084,1.266034 0.66115,0.285667 1.3664,0.428491 2.10938,0.428491 z"
       style="fill:#3a3a3a;fill-rule:evenodd;stroke-width:0.166181"
       id="path563" />
    <path
       d="M 99.57423,46.626554 V 32.700348 h 1.60563 v 13.926206 z"
       style="fill:#3a3a3a;fill-rule:evenodd;stroke-width:0.166181"
       id="path565" />
    <path
       d="M 92.342535,46.626554 V 34.278018 h -3.81579 v -1.57767 h 9.237181 v 1.57767 h -3.796891 v 12.348536 z"
       style="fill:#3a3a3a;fill-rule:evenodd;stroke-width:0.166181"
       id="path567" />
    <path
       d="m 66.796986,46.626554 7.596877,-12.40699 h -6.16124 v -1.519216 h 8.881417 l -7.515069,12.348535 h 7.209671 v 1.577671 z"
       style="fill:#3a3a3a;fill-rule:evenodd;stroke-width:0.166181"
       id="path569" />
    <path
       d="M 63.645523,46.626554 V 32.700348 h 1.605632 v 13.926206 z"
       style="fill:#3a3a3a;fill-rule:evenodd;stroke-width:0.166181"
       id="path571" />
    <path
       d="M 55.012814,46.626554 V 32.700348 h 1.605628 v 12.348535 h 5.100293 v 1.577671 z"
       style="fill:#3a3a3a;fill-rule:evenodd;stroke-width:0.166181"
       id="path573" />
    <path
       d="m 29.876529,32.700348 h 1.624565 v 8.667356 c 0,1.408875 0.289622,2.441165 0.872057,3.10011 0.582436,0.658978 1.492331,0.990087 2.735887,0.990087 1.24359,0 2.153452,-0.331109 2.735937,-0.990087 0.582436,-0.658945 0.872058,-1.691235 0.872058,-3.10011 v -8.667356 h 1.624549 v 8.667356 c 0,1.88281 -0.434443,3.291668 -1.303389,4.226559 -0.872108,0.934907 -2.181798,1.402379 -3.932264,1.402379 -1.747356,0 -3.053903,-0.467472 -3.925995,-1.402379 -0.868947,-0.934891 -1.303405,-2.343749 -1.303405,-4.226559 z"
       style="fill:#3a3a3a;fill-rule:evenodd;stroke-width:0.166181"
       id="path575" />
    <path
       d="m 25.138326,38.897327 c 0.878358,0.386307 1.542688,0.89922 1.986588,1.538691 0.447076,0.639523 0.670582,1.399156 0.670582,2.272355 0,1.278993 -0.396688,2.311334 -1.1869,3.09363 -0.790279,0.782364 -1.835501,1.175115 -3.14205,1.175115 -1.064156,0 -1.955133,-0.279152 -2.676086,-0.840749 -0.717812,-0.561562 -1.202644,-1.356886 -1.457652,-2.38921 l 1.457652,-0.743366 c 0.198367,0.844005 0.522635,1.483527 0.976012,1.918516 0.450168,0.435004 1.016876,0.652498 1.700074,0.652498 0.805942,0 1.457686,-0.240223 1.958244,-0.717448 0.497449,-0.48043 0.746156,-1.103703 0.746156,-1.869783 0,-0.623272 -0.173132,-1.162155 -0.522602,-1.623113 -0.346295,-0.460973 -0.868931,-0.847261 -1.571016,-1.165411 l -1.643434,-0.723895 c -0.897294,-0.386305 -1.567875,-0.88295 -2.005475,-1.493247 -0.440757,-0.607055 -0.661153,-1.337413 -0.661153,-2.187932 0,-0.990088 0.355771,-1.808124 1.070408,-2.454108 0.714704,-0.646036 1.624565,-0.970631 2.732745,-0.970631 0.809149,0 1.514376,0.178514 2.10627,0.532386 0.595004,0.35708 1.057808,0.879697 1.388393,1.574363 l -1.328593,0.873249 c -0.299082,-0.53885 -0.639126,-0.938148 -1.013767,-1.201084 -0.37466,-0.262936 -0.799689,-0.396059 -1.271902,-0.396059 -0.604514,0 -1.098755,0.191524 -1.482872,0.571365 -0.384117,0.379793 -0.576134,0.863482 -0.576134,1.454252 0,0.493457 0.147944,0.921933 0.443917,1.282267 0.292764,0.363576 0.752408,0.681708 1.372649,0.960911 z"
       style="fill:#3a3a3a;fill-rule:evenodd;stroke-width:0.166181"
       id="path577" />
    <path
       d="M 15.350173,46.626554 V 32.700348 h 1.605629 v 13.926206 z"
       style="fill:#3a3a3a;fill-rule:evenodd;stroke-width:0.166181"
       id="path579" />
    <path
       d="m 108.49666,53.373723 a 0.36207266,0.37332876 0 0 1 0.36208,0.373328 0.36207266,0.37332876 0 1 1 -0.36208,-0.373328 z"
       style="fill:#ac0505;fill-rule:evenodd;stroke-width:0.166181"
       id="path581" />
    <path
       d="m 6.7818588,41.178812 3.4880182,-8.515064 h 3.270127 L 7.4479388,46.696684 H 6.1144855 L 0,32.663748 h 3.2770811 z"
       style="fill:#ac0505;fill-rule:evenodd;stroke-width:0.166181"
       id="path583" />
    <path
       d="m 83.710227,32.700348 5.910931,13.926206 H 87.880109 L 83.478738,35.816707 79.099421,46.626554 h -1.737852 l 5.886707,-13.926206 z"
       style="fill:#3a3a3a;fill-rule:evenodd;stroke-width:0.166181"
       id="path587" />
    <path
       d="m 47.34876,32.700348 5.910905,13.926206 h -1.74103 L 47.117269,35.816707 42.737932,46.626554 H 41.0001 l 5.886692,-13.926206 z"
       style="fill:#3a3a3a;fill-rule:evenodd;stroke-width:0.166181"
       id="path589" />
    <path
       d="m 118.18282,53.671287 c 0.26864,0 0.52584,-0.05205 0.76808,-0.157473 0.24341,-0.105334 0.46266,-0.259207 0.65788,-0.460485 0.19284,-0.19883 0.33981,-0.423749 0.44084,-0.67592 0.10106,-0.252136 0.15152,-0.519664 0.15152,-0.801398 0,-0.284081 -0.0505,-0.5552 -0.15267,-0.812063 -0.10215,-0.256911 -0.24913,-0.482962 -0.43969,-0.679514 -0.19288,-0.19883 -0.41108,-0.350412 -0.65444,-0.454545 -0.24225,-0.104187 -0.5006,-0.156274 -0.77152,-0.156274 -0.27323,0 -0.53269,0.05209 -0.77724,0.156274 -0.24451,0.104131 -0.46043,0.255715 -0.64868,0.454545 -0.19288,0.201244 -0.3398,0.428541 -0.44084,0.683058 -0.10106,0.254515 -0.15156,0.524438 -0.15156,0.808519 0,0.281734 0.0494,0.548113 0.14924,0.797855 0.1,0.24979 0.248,0.475891 0.44316,0.679463 0.19745,0.203674 0.41678,0.357551 0.65672,0.461734 0.24109,0.104186 0.49828,0.156224 0.7692,0.156224 z m 2.63141,-2.095276 c 0,0.363441 -0.0655,0.705534 -0.19517,1.02635 -0.12973,0.321962 -0.31916,0.607243 -0.56826,0.857017 -0.24918,0.24979 -0.53618,0.441552 -0.85992,0.577677 -0.32495,0.134945 -0.66018,0.202492 -1.00806,0.202492 -0.34783,0 -0.68194,-0.06755 -1.00456,-0.202492 -0.32148,-0.136125 -0.60734,-0.327887 -0.85646,-0.577677 -0.25146,-0.25212 -0.44201,-0.538597 -0.57408,-0.860611 -0.13081,-0.320765 -0.19633,-0.661711 -0.19633,-1.022756 0,-0.363439 0.0655,-0.705535 0.19633,-1.028696 0.13207,-0.321963 0.32262,-0.60962 0.57408,-0.861808 0.24681,-0.247378 0.53156,-0.437992 0.85532,-0.57179 0.32261,-0.133744 0.65787,-0.201225 1.0057,-0.201225 0.35015,0 0.68658,0.06748 1.01149,0.201225 0.32373,0.133798 0.60963,0.324412 0.85649,0.57179 0.2491,0.249792 0.43853,0.536268 0.56826,0.858231 0.12972,0.323196 0.19517,0.666504 0.19517,1.032273 z m 0.95866,2.528541 v -5.078411 h 1.15727 c 0.32952,0 0.57175,0.01892 0.72443,0.05686 0.15389,0.03903 0.28934,0.104132 0.40644,0.196452 0.1458,0.117193 0.25829,0.275845 0.33866,0.473496 0.0815,0.19775 0.12179,0.416729 0.12179,0.657037 0,0.415531 -0.11262,0.732754 -0.3376,0.948188 -0.22616,0.216633 -0.55567,0.324359 -0.99082,0.324359 h -0.10444 l 1.88058,2.422014 h -0.74399 l -1.79789,-2.422014 h -0.0826 v 2.422014 z m 0.57174,-4.567034 v 1.697546 h 0.44659 c 0.45811,0 0.76465,-0.06038 0.91965,-0.182294 0.15498,-0.120787 0.23191,-0.332627 0.23191,-0.635708 0,-0.325491 -0.0792,-0.552806 -0.23882,-0.684188 -0.15959,-0.130204 -0.46382,-0.195356 -0.91274,-0.195356 z m 3.11474,4.567034 v -5.078411 h 0.57865 v 2.258669 l 2.06772,-2.258669 h 0.69915 l -2.11134,2.285888 2.32033,2.792523 h -0.75657 l -2.21929,-2.733363 v 2.733363 z m 5.86328,-2.818544 c 0.32034,0.140816 0.56258,0.327836 0.72444,0.561074 0.16306,0.233186 0.24457,0.510179 0.24457,0.828649 0,0.466425 -0.14468,0.842876 -0.43283,1.128103 -0.28817,0.285313 -0.66936,0.428577 -1.14581,0.428577 -0.38803,0 -0.71296,-0.10183 -0.97587,-0.306608 -0.26173,-0.204771 -0.43857,-0.494825 -0.53154,-0.871275 l 0.53154,-0.271071 c 0.0724,0.307805 0.19063,0.540993 0.35592,0.699612 0.16417,0.158652 0.37084,0.237963 0.61995,0.237963 0.29395,0 0.53162,-0.08762 0.71411,-0.261654 0.18143,-0.175207 0.27208,-0.402504 0.27208,-0.681809 0,-0.227299 -0.0632,-0.423834 -0.19059,-0.591887 -0.12626,-0.168119 -0.31683,-0.308986 -0.57287,-0.425032 l -0.59931,-0.263949 c -0.3272,-0.140918 -0.57172,-0.322013 -0.73131,-0.544519 -0.16075,-0.221376 -0.24108,-0.487755 -0.24108,-0.797905 0,-0.361043 0.12975,-0.659383 0.39032,-0.894899 0.26062,-0.235583 0.59241,-0.353974 0.99652,-0.353974 0.2951,0 0.55223,0.06509 0.7681,0.194106 0.21695,0.130253 0.38574,0.320816 0.50631,0.574134 l -0.48452,0.31847 c -0.10902,-0.196536 -0.23303,-0.342094 -0.36968,-0.437991 -0.13661,-0.09586 -0.29161,-0.14441 -0.46381,-0.14441 -0.22045,0 -0.40069,0.06978 -0.54078,0.208314 -0.14005,0.138522 -0.21006,0.314875 -0.21006,0.53031 0,0.179949 0.054,0.336221 0.1619,0.467624 0.10674,0.132598 0.27435,0.248593 0.50051,0.350429 z"
       style="fill:#565757;fill-rule:evenodd;stroke-width:0.166181"
       id="path850" />
    <path
       d="m 108.49666,53.373723 a 0.36207266,0.37332876 0 0 1 0.36208,0.373328 0.36207266,0.37332876 0 1 1 -0.36208,-0.373328 z"
       style="fill:#ca0b0b;fill-rule:evenodd;stroke-width:0.166181"
       id="path852" />
    <path
       d="m 113.36881,51.86966 1.06921,-3.107232 h 1.13454 l -1.70361,4.515279 z"
       style="fill:#5f0404;fill-rule:evenodd;stroke-width:0.166181"
       id="path854" />
    <path
       d="m 111.8007,48.762428 h 0.0438 0.42057 l 0.002,0.0038 1.60257,4.511398 -0.31174,0.826221 h -0.22645 -0.23385 l -1.05816,-3.090626 -1.05359,3.090626 h -0.45982 l -0.28873,-0.764747 -0.009,-0.02162 z"
       style="fill:#8a0808;fill-rule:evenodd;stroke-width:0.166181"
       id="path856" />
    <path
       d="m 110.7283,51.86966 -0.49987,1.448529 -1.71989,-4.555761 h 1.13602 z"
       style="fill:#ca0b0b;fill-rule:evenodd;stroke-width:0.166181"
       id="path858" />
  </g>
</svg>
